<?xml version="1.0" encoding="UTF-8"?>
<svg width="700pt" height="700pt" version="1.1" viewBox="0 0 700 700" xmlns="http://www.w3.org/2000/svg">
 <g>
  <path d="m525 93.332c0 25.773-20.895 46.668-46.668 46.668-25.773 0-46.664-20.895-46.664-46.668 0-25.773 20.891-46.664 46.664-46.664 25.773 0 46.668 20.891 46.668 46.664"/>
  <path d="m630 158.67-23.332-93.332c-2.332-11.668-16.332-21-28-16.332-11.668 2.332-21 16.332-16.332 28l16.332 70-91 18.668-18.668-0.003906-91-18.668 16.332-70c2.332-11.668-4.668-25.668-16.332-28-11.668-2.332-25.668 4.668-28 16.332l-23.332 93.332c-2.332 7 0 11.668 2.332 18.668 2.332 4.668 9.332 9.332 14 9.332l74.668 14v336c0 14 9.332 23.332 23.332 23.332s23.332-9.332 23.332-23.332v-151.66c0-7 4.668-11.668 11.668-11.668s11.668 4.668 11.668 11.668v151.67c0 14 9.332 23.332 23.332 23.332s23.332-9.332 23.332-23.332v-336l74.668-14c7-2.332 11.668-4.668 14-9.332 7-7.0039 7-14.004 7-18.668z"/>
  <path d="m140 233.33v-11.664c0-7-4.668-11.668-11.668-11.668s-11.668 4.668-11.668 11.668v11.668c-14 0-23.332 9.332-23.332 23.332v4.668 18.668c0 9.332 7 18.668 16.332 21l-32.668 95.668c-4.668 11.668 2.332 21 16.332 21h46.668c11.668 0 25.668-9.332 30.332-21l16.332-49h70c14 0 23.332-9.332 23.332-23.332v-23.332h46.668c14 0 23.332-9.332 23.332-23.332h23.332v-46.668l-233.32-0.007812zm116.67 93.336h-63l7-23.332h53.668l-0.003907 23.332z"/>
 </g>
</svg>
