<?xml version="1.0" encoding="UTF-8"?>
<svg width="700pt" height="700pt" version="1.1" viewBox="0 0 700 700" xmlns="http://www.w3.org/2000/svg" xmlns:xlink="http://www.w3.org/1999/xlink">
 <defs>
  <symbol id="u" overflow="visible">
   <path d="m11.031-0.65625c-0.5625 0.29297-1.1562 0.51172-1.7812 0.65625-0.61719 0.15625-1.2578 0.23438-1.9219 0.23438-2 0-3.5898-0.55469-4.7656-1.6719-1.168-1.125-1.75-2.6406-1.75-4.5469 0-1.9258 0.58203-3.4453 1.75-4.5625 1.1758-1.1133 2.7656-1.6719 4.7656-1.6719 0.66406 0 1.3047 0.078125 1.9219 0.23438 0.625 0.14844 1.2188 0.36719 1.7812 0.65625v2.4844c-0.57422-0.39453-1.1406-0.67969-1.7031-0.85938-0.55469-0.1875-1.1367-0.28125-1.75-0.28125-1.1055 0-1.9766 0.35547-2.6094 1.0625-0.63672 0.71094-0.95312 1.6875-0.95312 2.9375 0 1.2305 0.31641 2.1992 0.95312 2.9062 0.63281 0.71094 1.5039 1.0625 2.6094 1.0625 0.61328 0 1.1953-0.085937 1.75-0.26562 0.5625-0.1875 1.1289-0.47266 1.7031-0.85938z"/>
  </symbol>
  <symbol id="e" overflow="visible">
   <path d="m8.0781-6.5469c-0.25-0.125-0.5-0.21094-0.75-0.26562-0.25-0.0625-0.50781-0.09375-0.76562-0.09375-0.74219 0-1.3086 0.24219-1.7031 0.71875-0.39844 0.48047-0.59375 1.1562-0.59375 2.0312v4.1562h-2.875v-9h2.875v1.4688c0.36328-0.58203 0.78516-1.0078 1.2656-1.2812 0.47656-0.26953 1.0547-0.40625 1.7344-0.40625 0.09375 0 0.19531 0.007812 0.3125 0.015625 0.11328 0 0.27344 0.015625 0.48438 0.046875z"/>
  </symbol>
  <symbol id="b" overflow="visible">
   <path d="m10.375-4.5312v0.82812h-6.7344c0.070313 0.67969 0.31641 1.1836 0.73438 1.5156 0.41406 0.33594 1 0.5 1.75 0.5 0.60156 0 1.2227-0.085938 1.8594-0.26562 0.63281-0.17578 1.2891-0.44531 1.9688-0.8125v2.2188c-0.6875 0.26172-1.3711 0.45312-2.0469 0.57812-0.67969 0.13281-1.3594 0.20312-2.0469 0.20312-1.625 0-2.8906-0.41016-3.7969-1.2344-0.90625-0.83203-1.3594-2-1.3594-3.5 0-1.4688 0.44141-2.6172 1.3281-3.4531 0.89453-0.84375 2.1172-1.2656 3.6719-1.2656 1.4141 0 2.5469 0.42969 3.3906 1.2812 0.85156 0.84375 1.2812 1.9805 1.2812 3.4062zm-2.9531-0.95312c0-0.53906-0.16406-0.97656-0.48438-1.3125-0.32422-0.34375-0.74219-0.51562-1.25-0.51562-0.5625 0-1.0234 0.15625-1.375 0.46875-0.34375 0.3125-0.55859 0.76562-0.64062 1.3594z"/>
  </symbol>
  <symbol id="d" overflow="visible">
   <path d="m5.4219-4.0469c-0.60547 0-1.0586 0.10547-1.3594 0.3125-0.30469 0.19922-0.45312 0.49609-0.45312 0.89062 0 0.36719 0.11719 0.65234 0.35938 0.85938 0.25 0.19922 0.59375 0.29688 1.0312 0.29688 0.53906 0 0.99219-0.19141 1.3594-0.57812 0.375-0.38281 0.5625-0.86719 0.5625-1.4531v-0.32812zm4.3906-1.0938v5.1406h-2.8906v-1.3281c-0.38672 0.54297-0.82422 0.9375-1.3125 1.1875-0.48047 0.25-1.0625 0.375-1.75 0.375-0.9375 0-1.6992-0.26953-2.2812-0.8125-0.58594-0.55078-0.875-1.2578-0.875-2.125 0-1.0508 0.36328-1.8203 1.0938-2.3125 0.72656-0.5 1.8672-0.75 3.4219-0.75h1.7031v-0.21875c0-0.45703-0.18359-0.78906-0.54688-1-0.35547-0.21875-0.91406-0.32812-1.6719-0.32812-0.625 0-1.2031 0.0625-1.7344 0.1875s-1.0234 0.3125-1.4688 0.5625v-2.2031c0.61328-0.14453 1.2266-0.25391 1.8438-0.32812 0.625-0.082031 1.25-0.125 1.875-0.125 1.625 0 2.7969 0.32422 3.5156 0.96875 0.71875 0.63672 1.0781 1.6719 1.0781 3.1094z"/>
  </symbol>
  <symbol id="c" overflow="visible">
   <path d="m4.5312-11.562v2.5625h2.9688v2.0469h-2.9688v3.8281c0 0.41797 0.082031 0.69922 0.25 0.84375 0.16406 0.14844 0.49219 0.21875 0.98438 0.21875h1.4844v2.0625h-2.4688c-1.1367 0-1.9453-0.23438-2.4219-0.70312-0.46875-0.47656-0.70312-1.2852-0.70312-2.4219v-3.8281h-1.4375v-2.0469h1.4375v-2.5625z"/>
  </symbol>
  <symbol id="k" overflow="visible">
   <path d="m7.5156-7.6875v-4.8281h2.8906v12.516h-2.8906v-1.2969c-0.39844 0.53125-0.83594 0.92188-1.3125 1.1719-0.48047 0.23828-1.0312 0.35938-1.6562 0.35938-1.1172 0-2.0312-0.4375-2.75-1.3125-0.71094-0.88281-1.0625-2.0234-1.0625-3.4219 0-1.3828 0.35156-2.5156 1.0625-3.3906 0.71875-0.88281 1.6328-1.3281 2.75-1.3281 0.61328 0 1.1602 0.125 1.6406 0.375 0.48828 0.25 0.92969 0.63672 1.3281 1.1562zm-1.9062 5.8281c0.61328 0 1.082-0.22266 1.4062-0.67188 0.33203-0.44531 0.5-1.1016 0.5-1.9688 0-0.85156-0.16797-1.5039-0.5-1.9531-0.32422-0.44531-0.79297-0.67188-1.4062-0.67188-0.60547 0-1.0742 0.22656-1.4062 0.67188-0.32422 0.44922-0.48438 1.1016-0.48438 1.9531 0 0.86719 0.16016 1.5234 0.48438 1.9688 0.33203 0.44922 0.80078 0.67188 1.4062 0.67188z"/>
  </symbol>
  <symbol id="j" overflow="visible">
   <path d="m6.1719-1.8594c0.61328 0 1.082-0.22266 1.4062-0.67188 0.33203-0.44531 0.5-1.1016 0.5-1.9688 0-0.85156-0.16797-1.5039-0.5-1.9531-0.32422-0.44531-0.79297-0.67188-1.4062-0.67188-0.61719 0-1.0898 0.22656-1.4219 0.67188-0.32422 0.44922-0.48438 1.1016-0.48438 1.9531 0 0.85547 0.16016 1.5117 0.48438 1.9688 0.33203 0.44922 0.80469 0.67188 1.4219 0.67188zm-1.9062-5.8281c0.39453-0.51953 0.83203-0.90625 1.3125-1.1562 0.47656-0.25 1.0352-0.375 1.6719-0.375 1.1016 0 2.0078 0.44531 2.7188 1.3281 0.71875 0.875 1.0781 2.0078 1.0781 3.3906 0 1.3984-0.35938 2.5391-1.0781 3.4219-0.71094 0.875-1.6172 1.3125-2.7188 1.3125-0.63672 0-1.1953-0.125-1.6719-0.375-0.48047-0.25-0.91797-0.63281-1.3125-1.1562v1.2969h-2.875v-12.516h2.875z"/>
  </symbol>
  <symbol id="g" overflow="visible">
   <path d="m0.20312-9h2.875l2.4219 6.1094 2.0625-6.1094h2.875l-3.7812 9.8594c-0.38672 1-0.83594 1.6953-1.3438 2.0938-0.5 0.39453-1.168 0.59375-2 0.59375h-1.6562v-1.875h0.89062c0.48828 0 0.84375-0.078125 1.0625-0.23438 0.22656-0.15625 0.40625-0.4375 0.53125-0.84375l0.078125-0.25z"/>
  </symbol>
  <symbol id="i" overflow="visible">
   <path d="m12.297-0.89062c-0.77344 0.375-1.5742 0.65625-2.4062 0.84375-0.82422 0.1875-1.6797 0.28125-2.5625 0.28125-2 0-3.5898-0.55469-4.7656-1.6719-1.168-1.125-1.75-2.6406-1.75-4.5469 0-1.9375 0.59375-3.457 1.7812-4.5625 1.1953-1.1133 2.832-1.6719 4.9062-1.6719 0.78906 0 1.5508 0.078125 2.2812 0.23438 0.73828 0.14844 1.4297 0.36719 2.0781 0.65625v2.4844c-0.66797-0.38281-1.3359-0.67188-2-0.85938-0.65625-0.1875-1.3203-0.28125-1.9844-0.28125-1.2422 0-2.1953 0.35156-2.8594 1.0469-0.66797 0.6875-1 1.6719-1 2.9531 0 1.2734 0.32031 2.25 0.96875 2.9375 0.64453 0.6875 1.5625 1.0312 2.75 1.0312 0.3125 0 0.60156-0.015625 0.875-0.046875 0.28125-0.039062 0.53516-0.10938 0.76562-0.20312v-2.3281h-1.8906v-2.0781h4.8125z"/>
  </symbol>
  <symbol id="f" overflow="visible">
   <path d="m10.438-5.4844v5.4844h-2.8906v-4.2031c0-0.76953-0.023437-1.3008-0.0625-1.5938-0.03125-0.30078-0.089844-0.51953-0.17188-0.65625-0.11719-0.1875-0.27344-0.33203-0.46875-0.4375-0.1875-0.10156-0.40625-0.15625-0.65625-0.15625-0.59375 0-1.0625 0.23438-1.4062 0.70312-0.34375 0.46094-0.51562 1.0938-0.51562 1.9062v4.4375h-2.875v-9h2.875v1.3125c0.42578-0.51953 0.88281-0.90625 1.375-1.1562 0.48828-0.25 1.0312-0.375 1.625-0.375 1.0391 0 1.8281 0.32031 2.3594 0.95312 0.53906 0.63672 0.8125 1.5625 0.8125 2.7812z"/>
  </symbol>
  <symbol id="t" overflow="visible">
   <path d="m1.5156-12h3.0938v4.375l4.4688-4.375h3.5938l-5.7812 5.6719 6.375 6.3281h-3.875l-4.7812-4.7344v4.7344h-3.0938z"/>
  </symbol>
  <symbol id="h" overflow="visible">
   <path d="m10.438-5.4844v5.4844h-2.8906v-4.1875c0-0.78125-0.023437-1.3164-0.0625-1.6094-0.03125-0.30078-0.089844-0.51953-0.17188-0.65625-0.11719-0.1875-0.27344-0.33203-0.46875-0.4375-0.1875-0.10156-0.40625-0.15625-0.65625-0.15625-0.59375 0-1.0625 0.23438-1.4062 0.70312-0.34375 0.46094-0.51562 1.0938-0.51562 1.9062v4.4375h-2.875v-12.516h2.875v4.8281c0.42578-0.51953 0.88281-0.90625 1.375-1.1562 0.48828-0.25 1.0312-0.375 1.625-0.375 1.0391 0 1.8281 0.32031 2.3594 0.95312 0.53906 0.63672 0.8125 1.5625 0.8125 2.7812z"/>
  </symbol>
  <symbol id="a" overflow="visible">
   <path d="m5.6719-7.1719c-0.63672 0-1.125 0.23047-1.4688 0.6875-0.33594 0.46094-0.5 1.1211-0.5 1.9844 0 0.86719 0.16406 1.5273 0.5 1.9844 0.34375 0.46094 0.83203 0.6875 1.4688 0.6875 0.625 0 1.1016-0.22656 1.4375-0.6875 0.33203-0.45703 0.5-1.1172 0.5-1.9844 0-0.86328-0.16797-1.5234-0.5-1.9844-0.33594-0.45703-0.8125-0.6875-1.4375-0.6875zm0-2.0469c1.5508 0 2.7578 0.41797 3.625 1.25 0.875 0.83594 1.3125 1.9922 1.3125 3.4688 0 1.4805-0.4375 2.6406-1.3125 3.4844-0.86719 0.83594-2.0742 1.25-3.625 1.25-1.5547 0-2.7734-0.41406-3.6562-1.25-0.875-0.84375-1.3125-2.0039-1.3125-3.4844 0-1.4766 0.4375-2.6328 1.3125-3.4688 0.88281-0.83203 2.1016-1.25 3.6562-1.25z"/>
  </symbol>
  <symbol id="s" overflow="visible">
   <path d="m1.5156-12h3.0938v9.6562h5.4375v2.3438h-8.5312z"/>
  </symbol>
  <symbol id="r" overflow="visible">
   <path d="m7.3125-12.516v1.8906h-1.5938c-0.40625 0-0.69531 0.074219-0.85938 0.21875-0.15625 0.14844-0.23438 0.40234-0.23438 0.76562v0.64062h2.4531v2.0469h-2.4531v6.9531h-2.875v-6.9531h-1.4375v-2.0469h1.4375v-0.64062c0-0.97656 0.26953-1.7031 0.8125-2.1719 0.55078-0.46875 1.3984-0.70312 2.5469-0.70312z"/>
  </symbol>
  <symbol id="q" overflow="visible">
   <path d="m9.7344-7.5156c0.36328-0.55078 0.79688-0.97266 1.2969-1.2656 0.5-0.28906 1.0508-0.4375 1.6562-0.4375 1.0312 0 1.8164 0.32031 2.3594 0.95312 0.53906 0.63672 0.8125 1.5625 0.8125 2.7812v5.4844h-2.8906v-4.7031-0.20312c0.007812-0.082031 0.015625-0.19141 0.015625-0.32812 0-0.63281-0.09375-1.0938-0.28125-1.375-0.1875-0.28906-0.49609-0.4375-0.92188-0.4375-0.54297 0-0.96484 0.22656-1.2656 0.67188-0.29297 0.44922-0.44531 1.1016-0.45312 1.9531v4.4219h-2.8906v-4.7031c0-0.98828-0.089844-1.625-0.26562-1.9062-0.16797-0.28906-0.47656-0.4375-0.92188-0.4375-0.55469 0-0.98047 0.23047-1.2812 0.6875-0.29297 0.44922-0.4375 1.0898-0.4375 1.9219v4.4375h-2.9062v-9h2.9062v1.3125c0.35156-0.50781 0.75781-0.89062 1.2188-1.1406 0.45703-0.25781 0.96094-0.39062 1.5156-0.39062 0.61328 0 1.1602 0.15234 1.6406 0.45312 0.47656 0.29297 0.84375 0.71094 1.0938 1.25z"/>
  </symbol>
  <symbol id="p" overflow="visible">
   <path d="m1.5156-12h3.4531l4.375 8.2344v-8.2344h2.9219v12h-3.4531l-4.3594-8.2344v8.2344h-2.9375z"/>
  </symbol>
  <symbol id="o" overflow="visible">
   <path d="m1.2812-3.5v-5.5h2.9062v0.89062c0 0.49219-0.007812 1.1055-0.015625 1.8438v1.4688c0 0.73047 0.015625 1.2578 0.046875 1.5781 0.039062 0.3125 0.10938 0.54297 0.20312 0.6875 0.11328 0.1875 0.26562 0.33594 0.45312 0.4375 0.1875 0.09375 0.40625 0.14062 0.65625 0.14062 0.60156 0 1.0781-0.22656 1.4219-0.6875 0.34375-0.45703 0.51562-1.0977 0.51562-1.9219v-4.4375h2.875v9h-2.875v-1.2969c-0.4375 0.52344-0.90234 0.90625-1.3906 1.1562-0.48047 0.25-1.0117 0.375-1.5938 0.375-1.043 0-1.8398-0.31641-2.3906-0.95312-0.54297-0.64453-0.8125-1.5703-0.8125-2.7812z"/>
  </symbol>
  <symbol id="n" overflow="visible">
   <path d="m1.5156-12h5.1406c1.5195 0 2.6875 0.33984 3.5 1.0156 0.82031 0.67969 1.2344 1.6406 1.2344 2.8906 0 1.2617-0.41406 2.2305-1.2344 2.9062-0.8125 0.67969-1.9805 1.0156-3.5 1.0156h-2.0469v4.1719h-3.0938zm3.0938 2.2344v3.3594h1.7188c0.59375 0 1.0508-0.14453 1.375-0.4375 0.33203-0.28906 0.5-0.70703 0.5-1.25 0-0.53125-0.16797-0.94141-0.5-1.2344-0.32422-0.28906-0.78125-0.4375-1.375-0.4375z"/>
  </symbol>
  <symbol id="m" overflow="visible">
   <path d="m1.3906-9h2.875v8.8438c0 1.207-0.29297 2.125-0.875 2.75-0.57422 0.63281-1.4141 0.95312-2.5156 0.95312h-1.4219v-1.875h0.5c0.53906 0 0.91406-0.125 1.125-0.375 0.20703-0.25 0.3125-0.73438 0.3125-1.4531zm0-3.5156h2.875v2.3438h-2.875z"/>
  </symbol>
  <symbol id="l" overflow="visible">
   <path d="m8.6562-8.7188v2.3438c-0.38672-0.26953-0.77734-0.46875-1.1719-0.59375-0.39844-0.13281-0.80859-0.20312-1.2344-0.20312-0.80469 0-1.4297 0.24219-1.875 0.71875-0.44922 0.46875-0.67188 1.1211-0.67188 1.9531 0 0.84375 0.22266 1.5 0.67188 1.9688 0.44531 0.46875 1.0703 0.70312 1.875 0.70312 0.45703 0 0.88281-0.066406 1.2812-0.20312 0.40625-0.13281 0.78125-0.33203 1.125-0.59375v2.3594c-0.44922 0.16797-0.90625 0.28906-1.375 0.375-0.46094 0.082031-0.92188 0.125-1.3906 0.125-1.625 0-2.8984-0.41406-3.8125-1.25-0.91797-0.83203-1.375-1.9922-1.375-3.4844 0-1.4766 0.45703-2.6328 1.375-3.4688 0.91406-0.83203 2.1875-1.25 3.8125-1.25 0.47656 0 0.94531 0.042969 1.4062 0.125 0.45703 0.085938 0.91016 0.21094 1.3594 0.375z"/>
  </symbol>
 </defs>
 <g>
  <path d="m638.25 363.2 14.863 11.484 28.836-37.32-205.66-158.95-205.66 158.95 28.836 37.32 19.582-15.133v148.6h-136.32l1.4883-1.4883-14.883-14.883c1.5742-1.5352 3.5234-3.4844 5.9961-5.9609l12.961-12.961-18.355-18.355 18.941-18.941-18.355-18.355 18.938-18.938-18.355-18.355 18.938-18.938-18.355-18.355 18.941-18.938-18.355-18.355 18.941-18.941-18.359-18.34 14.707-14.707 18.301 42.867c2.9648 6.9453 9.7188 11.109 16.824 11.109 2.3984 0 4.8281-0.47266 7.1719-1.4766 9.2891-3.9648 13.605-14.707 9.6406-23.996l-37.062-86.797c-3.5742-8.3711-12.762-12.84-21.555-10.48l-21.211 5.6914c-0.88672-3.2148-1.2383-6.2188-1.2578-9.0156-0.007812-5.1836 1.2227-9.6875 2.4453-12.82 0.61328-1.5625 1.2148-2.7734 1.6211-3.5195 0.20312-0.37109 0.35938-0.63281 0.44141-0.76563h-0.003906c0.97266-1.4375 1.5547-3.0195 1.8203-4.625 3.7734-8.5625 4.0469-18.07-0.52344-24.469l-6.8398 0.54688c-32.59 2.6016-35.965 13.941-42.684 36.547-2 6.7383-4.2734 14.379-7.625 22.645-5.1641 12.734-19.348 24.414-35.574 31.012 1.7695 5.1641 5.0781 9.0781 8.9961 12.195 0.058594 0.089844 0.089844 0.18359 0.15234 0.26953l37.316 53.75-4.6992 71.148c-0.66406 10.078 6.9648 18.785 17.039 19.449 0.41016 0.027344 0.81641 0.039063 1.2227 0.039063 7.582 0 14.145-4.707 16.875-11.469l8.75 8.75-18.938 18.941 18.355 18.352-18.941 18.941 18.355 18.355-18.938 18.938 12.668 12.672c2.3359 2.3359 4.1953 4.1953 5.707 5.668l-15.465 15.465 0.90625 0.90625h-140.86v16.461h700v-16.461h-61.754v-144.96zm-287.75-27.957 125.79-97.215 130.51 100.86v169.25h-130.11v-114.39h-80.191v114.39h-45.992zm-173.84-11.559-11.957 11.953-11.371-11.371 11.957-11.953zm-22.66-22.656 4.3047 4.3047-4.9141 4.9141zm-2.3477 35.535 6.0625 6.0625-6.9219 6.9219zm25.594-50.168-11.957 11.957-10.43-10.43c0.035156-0.61719-0.011719-1.2344-0.03125-1.8516l11.051-11.051zm8.2891-37.809 0.92578 2.168-3.7148-3.7148c0.91016 0.51562 1.8438 1.0312 2.7891 1.5469zm-60.891-11.078 32.836-8.8086c6.2422 5.957 13.984 11.742 23.469 17.277l-15.074 15.074-14.863-14.863-6.9844 6.9844 14.863 14.863-7.7031 7.7031zm28.105 124.05 11.953-11.953 11.371 11.371-11.953 11.953zm-0.58203 37.297 11.953-11.957 11.371 11.371-11.953 11.953zm-0.58594 37.293 11.957-11.957 11.371 11.371-11.957 11.957zm11.371 25.34 11.371 11.371c-3.4062 3.4102-8.5547 8.5547-11.953 11.953-3.2578-3.2578-8.1016-8.1016-11.371-11.371zm-0.58203 37.293 9.3711 9.3711h-18.738z"/>
  <path d="m510.89 393.77h57.391v57.391h-57.391z"/>
  <path d="m100.96 192.3c14.469-35.672 8.1211-59.473 55.887-63.281 0 0-90.055-59.5-129.93 32.5-39.879 91.992 59.578 66.453 74.047 30.781z"/>
  <path d="m179.78 136.75c14.789 7.6992 32.703 3.0469 42.051-10.211-2.5547-1.5-5.1758-3.2266-7.793-5.1523-13.734-10.109-22.211-21.965-19.266-26.809-0.36328 5.5195 9.4141 14.996 23.43 22.297 10.578 5.5117 20.805 8.3398 27.039 7.9062 2.8438-0.19922 4.8633-1.0703 5.6992-2.6797 2.6719-5.1367-7.6484-15.805-23.051-23.828-0.53125-0.27734-1.0547-0.52734-1.582-0.78906-2.5586-7.957-8.1211-14.953-16.121-19.121-16.121-8.3945-36-2.1328-44.398 13.988-6.8906 13.234-3.8906 28.98 6.3125 38.848 1.0859 1.0508 2.2734 2.0195 3.5195 2.9258 1.3164 0.95703 2.6758 1.8555 4.1602 2.625z"/>
  <path d="m623.06 159.39c-27.656 0-50.074-22.422-50.074-50.078 0-25.973 19.781-47.324 45.098-49.824-2.3672-0.30469-4.7656-0.51172-7.2148-0.51172-31.367 0-56.801 25.434-56.801 56.801 0 31.371 25.434 56.805 56.801 56.805 22.172 0 41.32-12.727 50.684-31.246-9.1875 11.027-23.016 18.055-38.492 18.055z"/>
  <use y="573.996094" xlink:href="#u"/>
  <use x="12.082031" y="573.996094" xlink:href="#e"/>
  <use x="20.199219" y="573.996094" xlink:href="#b"/>
  <use x="31.363281" y="573.996094" xlink:href="#d"/>
  <use x="42.472656" y="573.996094" xlink:href="#c"/>
  <use x="50.339844" y="573.996094" xlink:href="#b"/>
  <use x="61.503906" y="573.996094" xlink:href="#k"/>
  <use x="79.019531" y="573.996094" xlink:href="#j"/>
  <use x="90.804688" y="573.996094" xlink:href="#g"/>
  <use x="107.265625" y="573.996094" xlink:href="#i"/>
  <use x="120.777344" y="573.996094" xlink:href="#d"/>
  <use x="131.886719" y="573.996094" xlink:href="#f"/>
  <use x="149.335938" y="573.996094" xlink:href="#t"/>
  <use x="162.089844" y="573.996094" xlink:href="#h"/>
  <use x="173.8125" y="573.996094" xlink:href="#a"/>
  <use x="185.121094" y="573.996094" xlink:href="#a"/>
  <use x="196.429688" y="573.996094" xlink:href="#f"/>
  <use x="213.878906" y="573.996094" xlink:href="#s"/>
  <use x="224.367188" y="573.996094" xlink:href="#d"/>
  <use x="235.476563" y="573.996094" xlink:href="#g"/>
  <use y="590.457031" xlink:href="#r"/>
  <use x="7.160156" y="590.457031" xlink:href="#e"/>
  <use x="15.28125" y="590.457031" xlink:href="#a"/>
  <use x="26.589844" y="590.457031" xlink:href="#q"/>
  <use x="49.472656" y="590.457031" xlink:href="#c"/>
  <use x="57.34375" y="590.457031" xlink:href="#h"/>
  <use x="69.0625" y="590.457031" xlink:href="#b"/>
  <use x="85.957031" y="590.457031" xlink:href="#p"/>
  <use x="99.734375" y="590.457031" xlink:href="#a"/>
  <use x="111.042969" y="590.457031" xlink:href="#o"/>
  <use x="122.761719" y="590.457031" xlink:href="#f"/>
  <use x="140.210938" y="590.457031" xlink:href="#n"/>
  <use x="152.277344" y="590.457031" xlink:href="#e"/>
  <use x="160.394531" y="590.457031" xlink:href="#a"/>
  <use x="171.703125" y="590.457031" xlink:href="#m"/>
  <use x="177.347656" y="590.457031" xlink:href="#b"/>
  <use x="188.511719" y="590.457031" xlink:href="#l"/>
  <use x="198.269531" y="590.457031" xlink:href="#c"/>
 </g>
</svg>
