<?xml version="1.0" encoding="UTF-8"?>
<svg width="700pt" height="700pt" version="1.1" viewBox="0 0 700 700" xmlns="http://www.w3.org/2000/svg" xmlns:xlink="http://www.w3.org/1999/xlink">
 <defs>
  <symbol id="u" overflow="visible">
   <path d="m9.5-0.5625c-0.49219 0.25-1 0.4375-1.5312 0.5625-0.53125 0.13281-1.0898 0.20312-1.6719 0.20312-1.7188 0-3.0859-0.47656-4.0938-1.4375-1-0.96875-1.5-2.2734-1.5-3.9219 0-1.6445 0.5-2.9453 1.5-3.9062 1.0078-0.96875 2.375-1.4531 4.0938-1.4531 0.58203 0 1.1406 0.070313 1.6719 0.20312 0.53125 0.125 1.0391 0.3125 1.5312 0.5625v2.1406c-0.5-0.33203-0.99219-0.57812-1.4688-0.73438-0.48047-0.16406-0.98438-0.25-1.5156-0.25-0.94922 0-1.6992 0.30859-2.25 0.92188-0.54297 0.60547-0.8125 1.4453-0.8125 2.5156 0 1.0625 0.26953 1.9023 0.8125 2.5156 0.55078 0.60547 1.3008 0.90625 2.25 0.90625 0.53125 0 1.0352-0.078125 1.5156-0.23438 0.47656-0.15625 0.96875-0.39844 1.4688-0.73438z"/>
  </symbol>
  <symbol id="e" overflow="visible">
   <path d="m6.9531-5.6406c-0.21875-0.10156-0.4375-0.17578-0.65625-0.21875-0.21094-0.050781-0.42188-0.078125-0.64062-0.078125-0.63672 0-1.125 0.20312-1.4688 0.60938s-0.51562 0.99219-0.51562 1.75v3.5781h-2.4844v-7.75h2.4844v1.2656c0.3125-0.5 0.67578-0.86328 1.0938-1.0938 0.41406-0.23828 0.91016-0.35938 1.4844-0.35938 0.082031 0 0.17188 0.007812 0.26562 0.015625 0.09375 0 0.23438 0.015625 0.42188 0.046875z"/>
  </symbol>
  <symbol id="b" overflow="visible">
   <path d="m8.9219-3.8906v0.70312h-5.7812c0.050781 0.58594 0.25391 1.0234 0.60938 1.3125 0.36328 0.28125 0.86719 0.42188 1.5156 0.42188 0.53125 0 1.0664-0.070313 1.6094-0.21875 0.53906-0.15625 1.1016-0.39062 1.6875-0.70312v1.9062c-0.58594 0.21875-1.1719 0.38672-1.7656 0.5-0.58594 0.11328-1.168 0.17188-1.75 0.17188-1.4062 0-2.5-0.35156-3.2812-1.0625-0.77344-0.71875-1.1562-1.7227-1.1562-3.0156 0-1.2578 0.37891-2.25 1.1406-2.9688 0.76953-0.72656 1.8203-1.0938 3.1562-1.0938 1.2188 0 2.1914 0.37109 2.9219 1.1094 0.72656 0.73047 1.0938 1.7109 1.0938 2.9375zm-2.5469-0.82812c0-0.46875-0.13672-0.84766-0.40625-1.1406-0.27344-0.28906-0.63281-0.4375-1.0781-0.4375-0.48047 0-0.87109 0.13672-1.1719 0.40625-0.30469 0.27344-0.49219 0.66406-0.5625 1.1719z"/>
  </symbol>
  <symbol id="d" overflow="visible">
   <path d="m4.6562-3.4844c-0.51172 0-0.89844 0.089844-1.1562 0.26562-0.26172 0.16797-0.39062 0.42188-0.39062 0.76562 0 0.3125 0.10156 0.55859 0.3125 0.73438 0.20703 0.17969 0.5 0.26562 0.875 0.26562 0.46875 0 0.85938-0.16406 1.1719-0.5 0.32031-0.33203 0.48438-0.75 0.48438-1.25v-0.28125zm3.7969-0.9375v4.4219h-2.5v-1.1562c-0.33594 0.48047-0.71094 0.82812-1.125 1.0469-0.41797 0.20703-0.92188 0.3125-1.5156 0.3125-0.80469 0-1.4531-0.23438-1.9531-0.70312s-0.75-1.0781-0.75-1.8281c0-0.90625 0.3125-1.5703 0.9375-2 0.625-0.42578 1.6016-0.64062 2.9375-0.64062h1.4688v-0.1875c0-0.39453-0.15625-0.67969-0.46875-0.85938-0.30469-0.1875-0.78125-0.28125-1.4375-0.28125-0.53125 0-1.0273 0.058594-1.4844 0.17188-0.46094 0.10547-0.88672 0.26172-1.2812 0.46875v-1.8906c0.53125-0.125 1.0625-0.21875 1.5938-0.28125 0.53906-0.070313 1.0781-0.10938 1.6094-0.10938 1.4062 0 2.4141 0.27734 3.0312 0.82812 0.625 0.55469 0.9375 1.4492 0.9375 2.6875z"/>
  </symbol>
  <symbol id="c" overflow="visible">
   <path d="m3.8906-9.9531v2.2031h2.5625v1.7656h-2.5625v3.2969c0 0.35547 0.070313 0.60156 0.21875 0.73438 0.14453 0.125 0.42969 0.1875 0.85938 0.1875h1.2656v1.7656h-2.125c-0.98047 0-1.6719-0.20312-2.0781-0.60938s-0.60938-1.0977-0.60938-2.0781v-3.2969h-1.2344v-1.7656h1.2344v-2.2031z"/>
  </symbol>
  <symbol id="k" overflow="visible">
   <path d="m6.4688-6.6094v-4.1562h2.4844v10.766h-2.4844v-1.125c-0.34375 0.46094-0.72656 0.79688-1.1406 1.0156-0.40625 0.20703-0.88281 0.3125-1.4219 0.3125-0.94922 0-1.7305-0.37891-2.3438-1.1406-0.61719-0.75781-0.92188-1.7383-0.92188-2.9375 0-1.1875 0.30469-2.1602 0.92188-2.9219 0.61328-0.75781 1.3945-1.1406 2.3438-1.1406 0.53906 0 1.0156 0.10938 1.4219 0.32812 0.41406 0.21094 0.79688 0.54297 1.1406 1zm-1.6406 5.0156c0.53125 0 0.9375-0.19141 1.2188-0.57812 0.28125-0.39453 0.42188-0.96094 0.42188-1.7031 0-0.72656-0.14062-1.2852-0.42188-1.6719-0.28125-0.39453-0.6875-0.59375-1.2188-0.59375-0.52344 0-0.92188 0.19922-1.2031 0.59375-0.28125 0.38672-0.42188 0.94531-0.42188 1.6719 0 0.74219 0.14062 1.3086 0.42188 1.7031 0.28125 0.38672 0.67969 0.57812 1.2031 0.57812z"/>
  </symbol>
  <symbol id="j" overflow="visible">
   <path d="m5.3125-1.5938c0.53125 0 0.9375-0.19141 1.2188-0.57812 0.28125-0.39453 0.42188-0.96094 0.42188-1.7031 0-0.72656-0.14062-1.2852-0.42188-1.6719-0.28125-0.39453-0.6875-0.59375-1.2188-0.59375s-0.9375 0.19922-1.2188 0.59375c-0.28125 0.38672-0.42188 0.94531-0.42188 1.6719 0 0.74219 0.14062 1.3086 0.42188 1.7031 0.28125 0.38672 0.6875 0.57812 1.2188 0.57812zm-1.6406-5.0156c0.33203-0.45703 0.70703-0.78906 1.125-1 0.41406-0.21875 0.89453-0.32812 1.4375-0.32812 0.95703 0 1.7422 0.38281 2.3594 1.1406 0.61328 0.76172 0.92188 1.7344 0.92188 2.9219 0 1.1992-0.30859 2.1797-0.92188 2.9375-0.61719 0.76172-1.4023 1.1406-2.3594 1.1406-0.54297 0-1.0234-0.10547-1.4375-0.3125-0.41797-0.21875-0.79297-0.55469-1.125-1.0156v1.125h-2.4844v-10.766h2.4844z"/>
  </symbol>
  <symbol id="g" overflow="visible">
   <path d="m0.17188-7.75h2.4844l2.0781 5.2656 1.7656-5.2656h2.4844l-3.2656 8.4844c-0.32422 0.86328-0.70312 1.4688-1.1406 1.8125s-1.0156 0.51562-1.7344 0.51562h-1.4219v-1.625h0.76562c0.42578 0 0.73438-0.070312 0.92188-0.20312 0.1875-0.13672 0.33594-0.375 0.45312-0.71875l0.0625-0.21875z"/>
  </symbol>
  <symbol id="i" overflow="visible">
   <path d="m10.594-0.76562c-0.66797 0.32422-1.3594 0.57031-2.0781 0.73438-0.71094 0.15625-1.4492 0.23438-2.2188 0.23438-1.7188 0-3.0859-0.47656-4.0938-1.4375-1-0.96875-1.5-2.2734-1.5-3.9219 0-1.6641 0.50781-2.9727 1.5312-3.9219 1.0312-0.95703 2.4375-1.4375 4.2188-1.4375 0.6875 0 1.3438 0.070313 1.9688 0.20312 0.63281 0.125 1.2266 0.3125 1.7812 0.5625v2.1406c-0.57422-0.33203-1.1484-0.57812-1.7188-0.73438-0.57422-0.16406-1.1406-0.25-1.7031-0.25-1.0625 0-1.8867 0.29688-2.4688 0.89062-0.57422 0.59375-0.85938 1.4453-0.85938 2.5469 0 1.0938 0.27344 1.9375 0.82812 2.5312 0.5625 0.59375 1.3516 0.89062 2.375 0.89062 0.26953 0 0.52344-0.015625 0.76562-0.046875 0.23828-0.03125 0.45312-0.082031 0.64062-0.15625v-2.0156h-1.625v-1.7812h4.1562z"/>
  </symbol>
  <symbol id="f" overflow="visible">
   <path d="m8.9844-4.7188v4.7188h-2.5v-3.6094c0-0.66406-0.015625-1.125-0.046875-1.375-0.023438-0.25781-0.070312-0.45312-0.14062-0.57812-0.10547-0.15625-0.24219-0.27344-0.40625-0.35938-0.16797-0.09375-0.35547-0.14062-0.5625-0.14062-0.52344 0-0.92969 0.19922-1.2188 0.59375-0.29297 0.39844-0.4375 0.94922-0.4375 1.6562v3.8125h-2.4844v-7.75h2.4844v1.1406c0.375-0.45703 0.76953-0.78906 1.1875-1 0.41406-0.21875 0.87891-0.32812 1.3906-0.32812 0.89453 0 1.5703 0.27734 2.0312 0.82812 0.46875 0.54297 0.70312 1.3398 0.70312 2.3906z"/>
  </symbol>
  <symbol id="t" overflow="visible">
   <path d="m1.2969-10.328h2.6719v3.7656l3.8438-3.7656h3.0938l-4.9844 4.8906 5.4844 5.4375h-3.3281l-4.1094-4.0625v4.0625h-2.6719z"/>
  </symbol>
  <symbol id="h" overflow="visible">
   <path d="m8.9844-4.7188v4.7188h-2.5v-3.5938c0-0.67578-0.015625-1.1406-0.046875-1.3906-0.023438-0.25781-0.070312-0.45312-0.14062-0.57812-0.10547-0.15625-0.24219-0.27344-0.40625-0.35938-0.16797-0.09375-0.35547-0.14062-0.5625-0.14062-0.52344 0-0.92969 0.19922-1.2188 0.59375-0.29297 0.39844-0.4375 0.94922-0.4375 1.6562v3.8125h-2.4844v-10.766h2.4844v4.1562c0.375-0.45703 0.76953-0.78906 1.1875-1 0.41406-0.21875 0.87891-0.32812 1.3906-0.32812 0.89453 0 1.5703 0.27734 2.0312 0.82812 0.46875 0.54297 0.70312 1.3398 0.70312 2.3906z"/>
  </symbol>
  <symbol id="a" overflow="visible">
   <path d="m4.875-6.1719c-0.54297 0-0.96094 0.19922-1.25 0.59375-0.29297 0.39844-0.4375 0.96484-0.4375 1.7031 0 0.75 0.14453 1.3242 0.4375 1.7188 0.28906 0.38672 0.70703 0.57812 1.25 0.57812 0.53906 0 0.95312-0.19141 1.2344-0.57812 0.28906-0.39453 0.4375-0.96875 0.4375-1.7188 0-0.73828-0.14844-1.3047-0.4375-1.7031-0.28125-0.39453-0.69531-0.59375-1.2344-0.59375zm0-1.7656c1.332 0 2.375 0.35938 3.125 1.0781s1.125 1.7148 1.125 2.9844c0 1.2812-0.375 2.2812-1.125 3s-1.793 1.0781-3.125 1.0781c-1.3359 0-2.3828-0.35938-3.1406-1.0781-0.75-0.71875-1.125-1.7188-1.125-3 0-1.2695 0.375-2.2656 1.125-2.9844 0.75781-0.71875 1.8047-1.0781 3.1406-1.0781z"/>
  </symbol>
  <symbol id="s" overflow="visible">
   <path d="m1.2969-10.328h2.6719v8.3125h4.6719v2.0156h-7.3438z"/>
  </symbol>
  <symbol id="r" overflow="visible">
   <path d="m6.2969-10.766v1.625h-1.375c-0.35547 0-0.60156 0.0625-0.73438 0.1875-0.13672 0.125-0.20312 0.34375-0.20312 0.65625v0.54688h2.1094v1.7656h-2.1094v5.9844h-2.4844v-5.9844h-1.2344v-1.7656h1.2344v-0.54688c0-0.84375 0.23438-1.4609 0.70312-1.8594 0.46875-0.40625 1.1953-0.60938 2.1875-0.60938z"/>
  </symbol>
  <symbol id="q" overflow="visible">
   <path d="m8.375-6.4688c0.3125-0.47656 0.67969-0.84375 1.1094-1.0938 0.4375-0.25 0.91016-0.375 1.4219-0.375 0.89453 0 1.5703 0.27734 2.0312 0.82812 0.46875 0.54297 0.70312 1.3398 0.70312 2.3906v4.7188h-2.4844v-4.0469-0.17188c0.007812-0.070312 0.015625-0.16406 0.015625-0.28125 0-0.55078-0.085937-0.94531-0.25-1.1875-0.15625-0.25-0.41797-0.375-0.78125-0.375-0.46875 0-0.83594 0.19531-1.0938 0.57812-0.25 0.38672-0.38281 0.94531-0.39062 1.6719v3.8125h-2.4844v-4.0469c0-0.85156-0.078125-1.3984-0.23438-1.6406-0.14844-0.25-0.40625-0.375-0.78125-0.375-0.48047 0-0.85156 0.19531-1.1094 0.57812-0.25 0.38672-0.375 0.94531-0.375 1.6719v3.8125h-2.5v-7.75h2.5v1.1406c0.30078-0.4375 0.64844-0.76562 1.0469-0.98438 0.39453-0.22656 0.82812-0.34375 1.2969-0.34375 0.53906 0 1.0156 0.13281 1.4219 0.39062 0.41406 0.26172 0.72656 0.62109 0.9375 1.0781z"/>
  </symbol>
  <symbol id="p" overflow="visible">
   <path d="m1.2969-10.328h2.9844l3.75 7.0781v-7.0781h2.5312v10.328h-2.9844l-3.75-7.0938v7.0938h-2.5312z"/>
  </symbol>
  <symbol id="o" overflow="visible">
   <path d="m1.1094-3.0156v-4.7344h2.4844v0.78125c0 0.41797-0.007812 0.94531-0.015625 1.5781v1.2656c0 0.625 0.015625 1.0781 0.046875 1.3594 0.039062 0.27344 0.097656 0.46484 0.17188 0.57812 0.10156 0.16797 0.23438 0.29688 0.39062 0.39062 0.16406 0.085937 0.35938 0.125 0.57812 0.125 0.50781 0 0.91016-0.19531 1.2031-0.59375 0.30078-0.39453 0.45312-0.94531 0.45312-1.6562v-3.8281h2.4844v7.75h-2.4844v-1.125c-0.375 0.46094-0.77344 0.79688-1.1875 1.0156-0.41797 0.20703-0.875 0.3125-1.375 0.3125-0.89844 0-1.5781-0.27344-2.0469-0.82812-0.46875-0.55078-0.70312-1.3477-0.70312-2.3906z"/>
  </symbol>
  <symbol id="n" overflow="visible">
   <path d="m1.2969-10.328h4.4219c1.3125 0 2.3203 0.29297 3.0312 0.875 0.70703 0.58594 1.0625 1.4141 1.0625 2.4844 0 1.0938-0.35547 1.9336-1.0625 2.5156-0.71094 0.58594-1.7188 0.875-3.0312 0.875h-1.75v3.5781h-2.6719zm2.6719 1.9219v2.8906h1.4688c0.51953 0 0.92188-0.125 1.2031-0.375s0.42188-0.60938 0.42188-1.0781c0-0.45703-0.14062-0.8125-0.42188-1.0625s-0.68359-0.375-1.2031-0.375z"/>
  </symbol>
  <symbol id="m" overflow="visible">
   <path d="m1.1875-7.75h2.4844v7.6094c0 1.0391-0.25 1.832-0.75 2.375-0.5 0.55078-1.2266 0.82812-2.1719 0.82812h-1.2188v-1.625h0.42188c0.47656 0 0.80078-0.10938 0.96875-0.32812 0.17578-0.21094 0.26562-0.625 0.26562-1.25zm0-3.0156h2.4844v2.0156h-2.4844z"/>
  </symbol>
  <symbol id="l" overflow="visible">
   <path d="m7.4531-7.5156v2.0312c-0.33594-0.22656-0.67188-0.39844-1.0156-0.51562-0.33594-0.11328-0.68359-0.17188-1.0469-0.17188-0.69922 0-1.2422 0.20312-1.625 0.60938-0.38672 0.40625-0.57812 0.96875-0.57812 1.6875 0 0.73047 0.19141 1.2969 0.57812 1.7031 0.38281 0.39844 0.92578 0.59375 1.625 0.59375 0.38281 0 0.75-0.054687 1.0938-0.17188 0.35156-0.11328 0.67578-0.28125 0.96875-0.5v2.0156c-0.38672 0.14844-0.78125 0.25391-1.1875 0.32812-0.39844 0.070312-0.79297 0.10938-1.1875 0.10938-1.4062 0-2.5078-0.35938-3.2969-1.0781-0.78125-0.71875-1.1719-1.7188-1.1719-3 0-1.2695 0.39062-2.2656 1.1719-2.9844 0.78906-0.71875 1.8906-1.0781 3.2969-1.0781 0.40625 0 0.80078 0.039062 1.1875 0.10938 0.39453 0.074219 0.78906 0.17969 1.1875 0.3125z"/>
  </symbol>
 </defs>
 <g>
  <path d="m64.188 358.85h-64.188v14.168h67.352c-1.543-3.4727-2.6055-7.2188-3.0117-11.199-0.10156-0.99609-0.13281-1.9844-0.15234-2.9688z"/>
  <path d="m510.52 373.02h171.48v-14.168h-159.52c-3.1328 5.4297-7.1836 10.227-11.957 14.168z"/>
  <path d="m301.41 356.89c-10.242-8.457-11.695-23.668-3.2422-33.91 1.5547-1.8828 3.3711-3.4688 5.3555-4.7734-0.27344-2.457-0.16406-4.9922 0.42187-7.5312 5.5703-24.004 12.457-43.441 20.961-59.344h-23.594c-0.9375 0-1.8516 0.097656-2.7461 0.25391-25.273 1.6445-79.465 12.633-149.22 64.789-5.4922 4.1055-11.082 8.4766-16.758 13.109l-34.461 3.5273c-13.855 1.418-23.934 13.805-22.516 27.656 1.418 13.852 13.797 23.934 27.652 22.516l6.9727-0.71484c0.078125 0.085937 0.14062 0.17969 0.21875 0.26953 5.0352 5.6172 12 8.4766 18.992 8.4766 6.0586 0 12.141-2.1484 17.008-6.5078 2.5898-2.3125 5.1484-4.5469 7.6875-6.7344l34.172-3.5 14.207-1.4531h120.41c-7.0898-4.7852-14.266-10.141-21.52-16.129zm-29.355-48.66c4.9688-1.457 9.4922-2.5703 13.5-3.3945v8.9883l-23.625 2.418-16.129 1.6523c9.8086-4.3047 18.582-7.418 26.254-9.6641z"/>
  <path d="m493.03 472.84c21.703 3.8359 26.355-38.133 7.9531-55.672-7.0352 34.707-28.379 52.066-7.9531 55.672z"/>
  <path d="m517.17 392.8c16.109 22.973 14.445 44.699 27.66 34.934 14.039-10.383-7.543-35.945-27.66-34.934z"/>
  <path d="m454.94 438.17c14.285 5.3945 22.836-22.578 12.559-36.887-9.2461 22.73-26.004 31.809-12.559 36.887z"/>
  <path d="m434.32 362.23c-7.8516-11.492-10.766-25.359-8.1914-39.043 3.2734-17.414 15.012-31.414 30.441-38.145v-17.957c0-1.1523-0.13281-2.2773-0.36719-3.3594-2.0703-15.73-16-34.375-34.059-44.867-19.555-11.363-40.438-11.863-58.801-1.3984-0.054688 0.03125-0.10156 0.066406-0.15625 0.097656-8.3633 4.8047-16.008 11.832-22.906 21.039-2.75 3.668-5.3945 7.6523-7.9023 12.023-8.8438 15.469-16.328 35.484-22.352 61.449-0.25391 1.0898-0.38672 2.1758-0.41797 3.2539 2.2852-0.70703 4.6875-1.1055 7.1484-1.1055 5.5742 0 11.02 1.957 15.324 5.5078 2.3594 1.9492 4.6953 3.7852 7.0195 5.5703 1.2422-1.7188 2.2148-3.668 2.7188-5.8672 5.4844-23.727 12.148-40.859 18.875-52.582 5.5156-9.625 10.945-15.469 15.715-18.98 1.0625-0.78125 2.1016-1.4883 3.0898-2.0508 0.003906-0.003906 0.003906-0.003906 0.011718-0.003906 7.5508-4.3008 15.809-4.1875 24.551 0.33984 2.875 1.4883 5.457 3.2734 7.7461 5.1758h-29.371c-3.8984 2.2539-9.8438 7.2969-16.336 18.621-7.1641 12.484-13.289 29.605-18.211 50.887-0.70703 3.0508-2.0078 5.8242-3.7539 8.2227 21.754 15.773 41.613 24.066 57.984 24.066 1.9453 0 3.8594-0.11719 5.7031-0.35547l1.6602 5.4922c-21.988 3.2578-49.992-8.5625-81.012-34.164-7.8516-6.4727-19.457-5.3633-25.93 2.4805-6.4766 7.8477-5.3672 19.453 2.4805 25.934 34.719 28.66 67.289 43.129 96.996 43.129 3.4727 0 6.9102-0.19922 10.297-0.59375 2.7656-0.32422 5.3633-0.80469 7.8906-1.3477 14.695-3.1719 25.305-9.6758 32.078-15.199-7.1055-3.8906-13.266-9.3906-17.965-16.27z"/>
  <path d="m485.84 287.71c24.906 4.6836 41.305 28.672 36.621 53.582-4.6836 24.906-28.672 41.301-53.582 36.617-24.91-4.6836-41.305-28.672-36.621-53.582 4.6836-24.906 28.672-41.301 53.582-36.617"/>
  <path d="m312.26 206.72-16.734-70.324-20.688 18.535-18.879-50.246-10.922 5.0117 27.004 59.355 17.422-17.953 20.25 56.652z"/>
  <path d="m333.88 206.17 17.277-58.66-22.988 4.9219 7.2656-44.82-10.121-0.91797-5.1289 54.93 20.344-5.8594-8.9492 50.098z"/>
  <path d="m247.57 200.54-32.211-30.992-6.4219 7.6914 41.598 34.918 6.6641-19.746 35.547 35.316 1.543-1.6758-37.812-46.863z"/>
  <path d="m584.48 96.723-84.953 145.79 6.2891 5.7695 92.301-140.02z"/>
  <path d="m542.57 278.29 1.8984 8.3242 155.53-62.73-4.6602-17.242z"/>
  <path d="m174.18 258.34c-6.6172 5.1055-7.5781 13.422-7.6133 13.773-0.16797 1.5547 0.95313 2.9375 2.5039 3.1133 0.10938 0.011719 0.21094 0.015625 0.31641 0.015625 1.418 0 2.6484-1.0703 2.8125-2.5156 0.007813-0.0625 0.78125-6.3359 5.4805-9.9336 3.0078-2.2969 7.0938-3.0742 12.125-2.3164 1.5625 0.25 2.9922-0.82812 3.2266-2.3789 0.23438-1.5469-0.83203-2.9922-2.3789-3.2266-6.6523-1.0039-12.191 0.16406-16.473 3.4688z"/>
  <path d="m191.27 242.28c-9.8398-1.8789-18.141-0.51172-24.672 4.0625-9.9414 6.9609-11.949 18.781-12.031 19.281-0.25 1.543 0.79688 2.9922 2.3398 3.2461 0.15625 0.027343 0.30859 0.039062 0.46094 0.039062 1.3594 0 2.5625-0.98438 2.793-2.3711 0.015626-0.097656 1.7578-10.027 9.7344-15.582 5.2227-3.6367 12.055-4.6797 20.309-3.1016 1.5312 0.29297 3.0195-0.71484 3.3164-2.2539 0.29687-1.5391-0.71094-3.0273-2.25-3.3203z"/>
  <path d="m313.08 478.46c-78.547 0-23.477-16.879 2.918-29.723 54-26.273-33.969-42.191-49.891-42.191s10.348-14.332 28.262-17.117c17.914-2.7852-7.5625-4.7773-17.512-3.1836-9.9531 1.5938-58.832 5.6484-41.262 23.219 20.168 20.168 83.855 21.23 45.641 29.723-38.211 8.4883-185.88 42.258-94.469 57.32 115.97 19.102 204.86-18.047 126.31-18.047z"/>
  <use y="544.472656" xlink:href="#u"/>
  <use x="10.398438" y="544.472656" xlink:href="#e"/>
  <use x="17.386719" y="544.472656" xlink:href="#b"/>
  <use x="26.996094" y="544.472656" xlink:href="#d"/>
  <use x="36.558594" y="544.472656" xlink:href="#c"/>
  <use x="43.332031" y="544.472656" xlink:href="#b"/>
  <use x="52.941406" y="544.472656" xlink:href="#k"/>
  <use x="68.015625" y="544.472656" xlink:href="#j"/>
  <use x="78.160156" y="544.472656" xlink:href="#g"/>
  <use x="92.328125" y="544.472656" xlink:href="#i"/>
  <use x="103.957031" y="544.472656" xlink:href="#d"/>
  <use x="113.519531" y="544.472656" xlink:href="#f"/>
  <use x="128.539062" y="544.472656" xlink:href="#t"/>
  <use x="139.519531" y="544.472656" xlink:href="#h"/>
  <use x="149.605469" y="544.472656" xlink:href="#a"/>
  <use x="159.339844" y="544.472656" xlink:href="#a"/>
  <use x="169.074219" y="544.472656" xlink:href="#f"/>
  <use x="184.09375" y="544.472656" xlink:href="#s"/>
  <use x="193.125" y="544.472656" xlink:href="#d"/>
  <use x="202.683594" y="544.472656" xlink:href="#g"/>
  <use y="558.640625" xlink:href="#r"/>
  <use x="6.164062" y="558.640625" xlink:href="#e"/>
  <use x="13.152344" y="558.640625" xlink:href="#a"/>
  <use x="22.886719" y="558.640625" xlink:href="#q"/>
  <use x="42.582031" y="558.640625" xlink:href="#c"/>
  <use x="49.355469" y="558.640625" xlink:href="#h"/>
  <use x="59.445312" y="558.640625" xlink:href="#b"/>
  <use x="73.988281" y="558.640625" xlink:href="#p"/>
  <use x="85.84375" y="558.640625" xlink:href="#a"/>
  <use x="95.578125" y="558.640625" xlink:href="#o"/>
  <use x="105.667969" y="558.640625" xlink:href="#f"/>
  <use x="120.6875" y="558.640625" xlink:href="#n"/>
  <use x="131.070313" y="558.640625" xlink:href="#e"/>
  <use x="138.058594" y="558.640625" xlink:href="#a"/>
  <use x="147.792969" y="558.640625" xlink:href="#m"/>
  <use x="152.648438" y="558.640625" xlink:href="#b"/>
  <use x="162.261719" y="558.640625" xlink:href="#l"/>
  <use x="170.660156" y="558.640625" xlink:href="#c"/>
 </g>
</svg>
