<?xml version="1.0" encoding="UTF-8"?>
<svg width="700pt" height="700pt" version="1.1" viewBox="0 0 700 700" xmlns="http://www.w3.org/2000/svg" xmlns:xlink="http://www.w3.org/1999/xlink">
 <defs>
  <symbol id="e" overflow="visible">
   <path d="m13.25-0.79688c-0.67969 0.35547-1.3906 0.62109-2.1406 0.79688-0.74219 0.1875-1.5117 0.28125-2.3125 0.28125-2.3984 0-4.2969-0.67188-5.7031-2.0156s-2.1094-3.1641-2.1094-5.4688c0-2.3008 0.70312-4.125 2.1094-5.4688s3.3047-2.0156 5.7031-2.0156c0.80078 0 1.5703 0.09375 2.3125 0.28125 0.75 0.17969 1.4609 0.44531 2.1406 0.79688v2.9844c-0.6875-0.46875-1.3711-0.8125-2.0469-1.0312-0.66797-0.21875-1.3711-0.32812-2.1094-0.32812-1.3242 0-2.3672 0.42969-3.125 1.2812-0.76172 0.84375-1.1406 2.0117-1.1406 3.5 0 1.4922 0.37891 2.6641 1.1406 3.5156 0.75781 0.84375 1.8008 1.2656 3.125 1.2656 0.73828 0 1.4414-0.10938 2.1094-0.32812 0.67578-0.21875 1.3594-0.5625 2.0469-1.0312z"/>
  </symbol>
  <symbol id="c" overflow="visible">
   <path d="m9.7031-7.875c-0.30469-0.13281-0.60547-0.23438-0.90625-0.29688-0.30469-0.070313-0.60547-0.10938-0.90625-0.10938-0.88672 0-1.5703 0.28906-2.0469 0.85938-0.48047 0.5625-0.71875 1.375-0.71875 2.4375v4.9844h-3.4688v-10.812h3.4688v1.7656c0.4375-0.70703 0.94141-1.2227 1.5156-1.5469 0.58203-0.32031 1.2734-0.48438 2.0781-0.48438 0.11328 0 0.23828 0.007813 0.375 0.015625 0.13281 0.011719 0.33203 0.03125 0.59375 0.0625z"/>
  </symbol>
  <symbol id="a" overflow="visible">
   <path d="m12.453-5.4375v0.98438h-8.0781c0.082031 0.8125 0.375 1.4219 0.875 1.8281s1.2031 0.60938 2.1094 0.60938c0.72656 0 1.4727-0.10938 2.2344-0.32812 0.75781-0.21875 1.5469-0.54688 2.3594-0.98438v2.6719c-0.82422 0.3125-1.6484 0.54688-2.4688 0.70312-0.8125 0.15625-1.625 0.23438-2.4375 0.23438-1.9609 0-3.4844-0.49219-4.5781-1.4844-1.0859-1-1.625-2.3984-1.625-4.2031 0-1.7578 0.53125-3.1445 1.5938-4.1562 1.0703-1.0078 2.5391-1.5156 4.4062-1.5156 1.6953 0 3.0547 0.51562 4.0781 1.5469 1.0195 1.0234 1.5312 2.3867 1.5312 4.0938zm-3.5469-1.1562c0-0.65625-0.19531-1.1797-0.57812-1.5781-0.38672-0.40625-0.88672-0.60938-1.5-0.60938-0.66797 0-1.2148 0.1875-1.6406 0.5625-0.41797 0.375-0.67188 0.91797-0.76562 1.625z"/>
  </symbol>
  <symbol id="j" overflow="visible">
   <path d="m6.5156-4.875c-0.73047 0-1.2773 0.125-1.6406 0.375-0.35547 0.24219-0.53125 0.60156-0.53125 1.0781 0 0.4375 0.14453 0.78125 0.4375 1.0312 0.28906 0.25 0.69531 0.375 1.2188 0.375 0.64453 0 1.1914-0.23438 1.6406-0.70312 0.44531-0.46875 0.67188-1.0508 0.67188-1.75v-0.40625zm5.2812-1.2969v6.1719h-3.4844v-1.6094c-0.46875 0.65625-0.99609 1.1367-1.5781 1.4375-0.57422 0.30078-1.2773 0.45312-2.1094 0.45312-1.1172 0-2.0273-0.32812-2.7344-0.98438-0.69922-0.65625-1.0469-1.5039-1.0469-2.5469 0-1.2578 0.4375-2.1875 1.3125-2.7812s2.2422-0.89062 4.1094-0.89062h2.0469v-0.28125c0-0.53906-0.21875-0.9375-0.65625-1.1875-0.42969-0.25781-1.1016-0.39062-2.0156-0.39062-0.74219 0-1.4297 0.078125-2.0625 0.23438-0.63672 0.14844-1.2305 0.36719-1.7812 0.65625v-2.6406c0.73828-0.17578 1.4766-0.3125 2.2188-0.40625 0.75-0.09375 1.5-0.14062 2.25-0.14062 1.9453 0 3.3516 0.38672 4.2188 1.1562 0.875 0.77344 1.3125 2.0234 1.3125 3.75z"/>
  </symbol>
  <symbol id="b" overflow="visible">
   <path d="m5.4375-13.891v3.0781h3.5625v2.4688h-3.5625v4.5938c0 0.5 0.097656 0.83984 0.29688 1.0156 0.19531 0.17969 0.59375 0.26562 1.1875 0.26562h1.7812v2.4688h-2.9688c-1.3672 0-2.3359-0.28125-2.9062-0.84375-0.5625-0.57031-0.84375-1.5391-0.84375-2.9062v-4.5938h-1.7188v-2.4688h1.7188v-3.0781z"/>
  </symbol>
  <symbol id="i" overflow="visible">
   <path d="m9.0156-9.2344v-5.7969h3.4844v15.031h-3.4844v-1.5625c-0.46875 0.63672-0.99219 1.1055-1.5625 1.4062-0.57422 0.28906-1.2422 0.4375-2 0.4375-1.3359 0-2.4297-0.52344-3.2812-1.5781-0.85547-1.0625-1.2812-2.4297-1.2812-4.1094 0-1.6641 0.42578-3.0234 1.2812-4.0781 0.85156-1.0625 1.9453-1.5938 3.2812-1.5938 0.75 0 1.4102 0.15234 1.9844 0.45312 0.58203 0.29297 1.1094 0.75781 1.5781 1.3906zm-2.2812 7c0.75 0 1.3164-0.26953 1.7031-0.8125 0.38281-0.53906 0.57812-1.3281 0.57812-2.3594 0-1.0195-0.19531-1.8008-0.57812-2.3438-0.38672-0.53906-0.95312-0.8125-1.7031-0.8125-0.73047 0-1.293 0.27344-1.6875 0.8125-0.38672 0.54297-0.57812 1.3242-0.57812 2.3438 0 1.0312 0.19141 1.8203 0.57812 2.3594 0.39453 0.54297 0.95703 0.8125 1.6875 0.8125z"/>
  </symbol>
  <symbol id="h" overflow="visible">
   <path d="m7.4219-2.2344c0.73828 0 1.3008-0.26953 1.6875-0.8125 0.39453-0.53906 0.59375-1.3281 0.59375-2.3594 0-1.0195-0.19922-1.8008-0.59375-2.3438-0.38672-0.53906-0.94922-0.8125-1.6875-0.8125-0.74219 0-1.3086 0.27344-1.7031 0.8125-0.39844 0.54297-0.59375 1.3242-0.59375 2.3438 0 1.0312 0.19531 1.8203 0.59375 2.3594 0.39453 0.54297 0.96094 0.8125 1.7031 0.8125zm-2.2969-7c0.46875-0.63281 0.99219-1.0977 1.5781-1.3906 0.58203-0.30078 1.25-0.45312 2-0.45312 1.332 0 2.4258 0.53125 3.2812 1.5938 0.85156 1.0547 1.2812 2.4141 1.2812 4.0781 0 1.6797-0.42969 3.0469-1.2812 4.1094-0.85547 1.0547-1.9492 1.5781-3.2812 1.5781-0.75 0-1.418-0.15234-2-0.45312-0.58594-0.30078-1.1094-0.76562-1.5781-1.3906v1.5625h-3.4688v-15.031h3.4688z"/>
  </symbol>
  <symbol id="g" overflow="visible">
   <path d="m0.23438-10.812h3.4688l2.9062 7.3281 2.4688-7.3281h3.4531l-4.5469 11.844c-0.46094 1.1953-0.99609 2.0352-1.6094 2.5156-0.60547 0.47656-1.4023 0.71875-2.3906 0.71875h-2v-2.2656h1.0781c0.58203 0 1.0078-0.09375 1.2812-0.28125 0.26953-0.1875 0.47656-0.52344 0.625-1l0.09375-0.29688z"/>
  </symbol>
  <symbol id="f" overflow="visible">
   <path d="m0.09375-14.422h3.7344l3.8281 10.641 3.8125-10.641h3.75l-5.3438 14.422h-4.4375z"/>
  </symbol>
  <symbol id="v" overflow="visible">
   <path d="m1.6562-10.812h3.4688v10.812h-3.4688zm0-4.2188h3.4688v2.8281h-3.4688z"/>
  </symbol>
  <symbol id="u" overflow="visible">
   <path d="m1.8125-14.422h10.031v2.8125h-6.3125v2.6875h5.9375v2.8125h-5.9375v3.2969h6.5312v2.8125h-10.25z"/>
  </symbol>
  <symbol id="t" overflow="visible">
   <path d="m5.5312-11.609v8.7969h1.3438c1.5078 0 2.6641-0.375 3.4688-1.125 0.80078-0.75781 1.2031-1.8516 1.2031-3.2812 0-1.4375-0.40234-2.5234-1.2031-3.2656-0.79297-0.75-1.9492-1.125-3.4688-1.125zm-3.7188-2.8125h3.9219c2.1875 0 3.8164 0.15625 4.8906 0.46875 1.0703 0.3125 1.9922 0.84375 2.7656 1.5938 0.67578 0.64844 1.1758 1.3984 1.5 2.25 0.33203 0.84375 0.5 1.8086 0.5 2.8906 0 1.0859-0.16797 2.0547-0.5 2.9062-0.32422 0.85547-0.82422 1.6055-1.5 2.25-0.77344 0.75-1.6992 1.2812-2.7812 1.5938-1.0859 0.3125-2.7109 0.46875-4.875 0.46875h-3.9219z"/>
  </symbol>
  <symbol id="s" overflow="visible">
   <path d="m8.7812-15.031v2.2656h-1.9062c-0.49219 0-0.83594 0.089844-1.0312 0.26562-0.19922 0.17969-0.29688 0.48438-0.29688 0.92188v0.76562h2.9688v2.4688h-2.9688v8.3438h-3.4531v-8.3438h-1.7188v-2.4688h1.7188v-0.76562c0-1.1758 0.32812-2.0469 0.98438-2.6094s1.6758-0.84375 3.0625-0.84375z"/>
  </symbol>
  <symbol id="d" overflow="visible">
   <path d="m6.8125-8.6094c-0.77344 0-1.3594 0.27734-1.7656 0.82812-0.39844 0.55469-0.59375 1.3438-0.59375 2.375 0 1.043 0.19531 1.8398 0.59375 2.3906 0.40625 0.55469 0.99219 0.82812 1.7656 0.82812 0.75 0 1.3203-0.27344 1.7188-0.82812 0.40625-0.55078 0.60938-1.3477 0.60938-2.3906 0-1.0312-0.20312-1.8203-0.60938-2.375-0.39844-0.55078-0.96875-0.82812-1.7188-0.82812zm0-2.4688c1.8516 0 3.3008 0.50781 4.3438 1.5156 1.0508 1 1.5781 2.3867 1.5781 4.1562 0 1.7812-0.52734 3.1797-1.5781 4.1875-1.043 1-2.4922 1.5-4.3438 1.5-1.8672 0-3.3281-0.5-4.3906-1.5-1.0547-1.0078-1.5781-2.4062-1.5781-4.1875 0-1.7695 0.52344-3.1562 1.5781-4.1562 1.0625-1.0078 2.5234-1.5156 4.3906-1.5156z"/>
  </symbol>
  <symbol id="r" overflow="visible">
   <path d="m11.688-9.0156c0.4375-0.67578 0.95703-1.1875 1.5625-1.5312 0.60156-0.35156 1.2656-0.53125 1.9844-0.53125 1.2383 0 2.1797 0.38672 2.8281 1.1562 0.65625 0.76172 0.98438 1.8711 0.98438 3.3281v6.5938h-3.4844v-5.6406c0.007812-0.082031 0.015625-0.16406 0.015625-0.25 0.007813-0.09375 0.015625-0.22266 0.015625-0.39062 0-0.76953-0.11719-1.3281-0.34375-1.6719-0.23047-0.34375-0.59375-0.51562-1.0938-0.51562-0.65625 0-1.1641 0.27344-1.5156 0.8125-0.35547 0.54297-0.54297 1.3242-0.5625 2.3438v5.3125h-3.4688v-5.6406c0-1.1953-0.10547-1.9688-0.3125-2.3125-0.21094-0.34375-0.57422-0.51562-1.0938-0.51562-0.66797 0-1.1836 0.27344-1.5469 0.8125-0.35547 0.54297-0.53125 1.3203-0.53125 2.3281v5.3281h-3.4844v-10.812h3.4844v1.5781c0.41406-0.61328 0.89844-1.0703 1.4531-1.375 0.55078-0.3125 1.1602-0.46875 1.8281-0.46875 0.75 0 1.4102 0.18359 1.9844 0.54688 0.57031 0.35547 1.0039 0.85938 1.2969 1.5156z"/>
  </symbol>
  <symbol id="q" overflow="visible">
   <path d="m12.531-6.5938v6.5938h-3.4688v-5.0156c0-0.94531-0.023438-1.5977-0.0625-1.9531-0.042969-0.35156-0.11719-0.61328-0.21875-0.78125-0.13672-0.22656-0.32422-0.40625-0.5625-0.53125-0.23047-0.125-0.49219-0.1875-0.78125-0.1875-0.71875 0-1.2891 0.28125-1.7031 0.84375-0.40625 0.55469-0.60938 1.3203-0.60938 2.2969v5.3281h-3.4688v-15.031h3.4688v5.7969c0.51953-0.63281 1.0703-1.0977 1.6562-1.3906 0.58203-0.30078 1.2266-0.45312 1.9375-0.45312 1.25 0 2.1953 0.38672 2.8438 1.1562 0.64453 0.76172 0.96875 1.8711 0.96875 3.3281z"/>
  </symbol>
  <symbol id="p" overflow="visible">
   <path d="m1.8125-14.422h4.1562l5.25 9.8906v-9.8906h3.5156v14.422h-4.1406l-5.25-9.8906v9.8906h-3.5312z"/>
  </symbol>
  <symbol id="o" overflow="visible">
   <path d="m1.5469-4.2188v-6.5938h3.4688v1.0781c0 0.58594-0.007813 1.3203-0.015625 2.2031v1.7812c0 0.86719 0.019531 1.4922 0.0625 1.875 0.050781 0.38672 0.12891 0.66406 0.23438 0.82812 0.14453 0.23047 0.33203 0.40625 0.5625 0.53125 0.22656 0.11719 0.48828 0.17188 0.78125 0.17188 0.72656 0 1.2969-0.27344 1.7031-0.82812 0.41406-0.55078 0.625-1.3164 0.625-2.2969v-5.3438h3.4531v10.812h-3.4531v-1.5625c-0.52344 0.625-1.0742 1.0898-1.6562 1.3906-0.58594 0.30078-1.2305 0.45312-1.9375 0.45312-1.25 0-2.2031-0.37891-2.8594-1.1406-0.64844-0.76953-0.96875-1.8906-0.96875-3.3594z"/>
  </symbol>
  <symbol id="n" overflow="visible">
   <path d="m12.531-6.5938v6.5938h-3.4688v-5.0469c0-0.92578-0.023438-1.5664-0.0625-1.9219-0.042969-0.35156-0.11719-0.61328-0.21875-0.78125-0.13672-0.22656-0.32422-0.40625-0.5625-0.53125-0.23047-0.125-0.49219-0.1875-0.78125-0.1875-0.71875 0-1.2891 0.28125-1.7031 0.84375-0.40625 0.55469-0.60938 1.3203-0.60938 2.2969v5.3281h-3.4688v-10.812h3.4688v1.5781c0.51953-0.63281 1.0703-1.0977 1.6562-1.3906 0.58203-0.30078 1.2266-0.45312 1.9375-0.45312 1.25 0 2.1953 0.38672 2.8438 1.1562 0.64453 0.76172 0.96875 1.8711 0.96875 3.3281z"/>
  </symbol>
  <symbol id="m" overflow="visible">
   <path d="m1.8125-14.422h6.1719c1.832 0 3.2383 0.40625 4.2188 1.2188 0.98828 0.8125 1.4844 1.9766 1.4844 3.4844 0 1.5117-0.49609 2.6797-1.4844 3.5-0.98047 0.8125-2.3867 1.2188-4.2188 1.2188h-2.4531v5h-3.7188zm3.7188 2.7031v4.0156h2.0625c0.71875 0 1.2734-0.17188 1.6719-0.51562 0.39453-0.35156 0.59375-0.85156 0.59375-1.5 0-0.64453-0.19922-1.1406-0.59375-1.4844-0.39844-0.34375-0.95312-0.51562-1.6719-0.51562z"/>
  </symbol>
  <symbol id="l" overflow="visible">
   <path d="m1.6562-10.812h3.4688v10.625c0 1.4453-0.35156 2.5508-1.0469 3.3125-0.69922 0.75781-1.7109 1.1406-3.0312 1.1406h-1.7031v-2.2656h0.59375c0.65625 0 1.1016-0.15234 1.3438-0.45312 0.25-0.29297 0.375-0.87109 0.375-1.7344zm0-4.2188h3.4688v2.8281h-3.4688z"/>
  </symbol>
  <symbol id="k" overflow="visible">
   <path d="m10.406-10.484v2.8281c-0.46875-0.32031-0.94531-0.5625-1.4219-0.71875-0.46875-0.15625-0.96094-0.23438-1.4688-0.23438-0.96875 0-1.7266 0.28125-2.2656 0.84375-0.53125 0.5625-0.79688 1.3516-0.79688 2.3594 0 1.0117 0.26562 1.8047 0.79688 2.375 0.53906 0.5625 1.2969 0.84375 2.2656 0.84375 0.53906 0 1.0508-0.078125 1.5312-0.23438 0.48828-0.16406 0.94141-0.41016 1.3594-0.73438v2.8438c-0.54297 0.19922-1.0938 0.34375-1.6562 0.4375-0.55469 0.10156-1.1094 0.15625-1.6719 0.15625-1.9492 0-3.4766-0.5-4.5781-1.5-1.1055-1-1.6562-2.3945-1.6562-4.1875 0-1.7812 0.55078-3.1719 1.6562-4.1719 1.1016-1 2.6289-1.5 4.5781-1.5 0.57031 0 1.1289 0.054687 1.6719 0.15625 0.55078 0.09375 1.1016 0.24219 1.6562 0.4375z"/>
  </symbol>
 </defs>
 <g>
  <path d="m696.05 119.04h-10.68v-11.469c0-2.7695-2.7695-4.7461-5.5352-4.7461-1.1875 0-3.5586 0.78906-4.7461 1.9766l-22.938 15.422c-4.7461 3.9531-10.281 5.5352-18.984 5.5352l-485.65 0.003907-14.633-15.027c-3.5586-3.5586-7.9102-5.5352-12.262-5.5352h-3.5586l-2.375 3.1641v18.191c-9.4922 0-20.168 12.262-30.453 27.684-6.7227 0-21.75-1.9766-29.66-7.5156-4.7461-3.5586-9.4922 3.5586-9.4922 6.7227 0 3.5586 0.78906 7.9102 5.5352 12.656 10.68 11.469 14.238 23.73 14.238 35.199 0 12.656-5.5352 24.914-16.215 24.914-14.234 0-30.449 3.1641-44.688 12.656-6.7227 4.7461-4.7422 14.234 3.957 14.234h37.57c35.594 0 53.391 24.125 53.391 55.367 0 7.9102-1.1875 17.402-3.9531 26.102l-15.422 44.293c-3.9531 12.262-9.4922 24.125-16.215 36.383-6.7227 12.656-9.4922 20.168-9.4922 44.293v13.445c0 17.004 3.9531 24.914 34.406 24.914h115.88c27.684 0 29.66-8.6992 22.938-18.984l-3.9531-7.5156c-4.7461-8.6992-4.7461-16.215-2.7695-26.895l16.215-91.75c3.9531-20.168 13.445-24.914 22.938-24.914 7.5156 0 16.215 4.7461 28.473 4.7461h67.23c5.9336 0 9.4922-3.9531 7.9102-9.4922-1.1875-5.5352-2.7695-13.445-2.7695-21.75 0-43.898 32.824-70 77.516-70h183.9v-51.801c0-3.5586-0.78906-5.5352-7.9102-5.5352h-169.66c-55.762 0-64.066-17.402-64.066-28.473 0-1.1875 1.1875-3.5586 3.5586-3.5586 1.1875 0 3.5586 1.9766 3.5586 3.5586 0 13.445 20.961 21.75 57.344 21.75h169.66c3.9531 0 14.633 0 14.633 12.262v52.598h38.363c6.7227 0 8.6992-1.1875 10.281-4.7461l17.402-37.176c4.7461-10.281 5.5352-14.633 5.5352-24.125v-42.316c-0.39453-3.5586-1.1836-4.7461-4.3477-4.7461zm-420.4 35.594-17.797 70.789h-6.7227l17.797-70.789zm-182.71 70.789 17.004-70.789h7.5156l-17.797 70.789zm22.148 0 17.402-70.789h6.7227l-16.613 70.789zm22.938 0 17.402-70.789h6.7227l-17.402 70.789zm22.938 0 17.004-70.789h6.7227l-17.004 70.789zm28.871 0h-6.7227l17.402-70.789h6.7227zm22.938 0h-6.7227l17.004-70.789h7.5156zm22.938 0h-7.5156l17.402-70.789h6.7227zm115.08 83.449c0 9.4922-4.7461 15.422-18.984 15.422h-39.152c-26.102 0-44.293-18.191-44.293-38.363 0-7.5156 2.7695-13.445 5.9336-17.402 1.1875-1.9766 2.7695-2.7695 3.9531-2.7695 1.9766 0 3.5586 2.7695 1.9766 10.281-1.9766 12.656 3.9531 32.824 22.938 40.34 2.7695 0.78906 6.7227-2.7695 3.9531-5.5352-13.445-11.469-16.215-37.57-4.7461-54.578 3.5586-4.7461 7.5156-5.5352 14.238-5.5352h17.004c23.73 0 37.176 18.191 37.176 37.57z"/>
  <use y="557.628906" xlink:href="#e"/>
  <use x="14.511719" y="557.628906" xlink:href="#c"/>
  <use x="24.265625" y="557.628906" xlink:href="#a"/>
  <use x="37.675781" y="557.628906" xlink:href="#j"/>
  <use x="51.019531" y="557.628906" xlink:href="#b"/>
  <use x="60.472656" y="557.628906" xlink:href="#a"/>
  <use x="73.882812" y="557.628906" xlink:href="#i"/>
  <use x="94.921875" y="557.628906" xlink:href="#h"/>
  <use x="109.074219" y="557.628906" xlink:href="#g"/>
  <use x="128.851562" y="557.628906" xlink:href="#f"/>
  <use x="144.152344" y="557.628906" xlink:href="#v"/>
  <use x="150.929687" y="557.628906" xlink:href="#a"/>
  <use x="164.34375" y="557.628906" xlink:href="#b"/>
  <use x="180.679688" y="557.628906" xlink:href="#u"/>
  <use x="194.1875" y="557.628906" xlink:href="#t"/>
  <use x="210.601562" y="557.628906" xlink:href="#e"/>
  <use y="577.402344" xlink:href="#s"/>
  <use x="8.601562" y="577.402344" xlink:href="#c"/>
  <use x="18.355469" y="577.402344" xlink:href="#d"/>
  <use x="31.941406" y="577.402344" xlink:href="#r"/>
  <use x="59.429687" y="577.402344" xlink:href="#b"/>
  <use x="68.878906" y="577.402344" xlink:href="#q"/>
  <use x="82.957031" y="577.402344" xlink:href="#a"/>
  <use x="103.253906" y="577.402344" xlink:href="#p"/>
  <use x="119.800781" y="577.402344" xlink:href="#d"/>
  <use x="133.386719" y="577.402344" xlink:href="#o"/>
  <use x="147.464844" y="577.402344" xlink:href="#n"/>
  <use x="168.425781" y="577.402344" xlink:href="#m"/>
  <use x="182.917969" y="577.402344" xlink:href="#c"/>
  <use x="192.671875" y="577.402344" xlink:href="#d"/>
  <use x="206.257812" y="577.402344" xlink:href="#l"/>
  <use x="213.035156" y="577.402344" xlink:href="#a"/>
  <use x="226.445312" y="577.402344" xlink:href="#k"/>
  <use x="238.167969" y="577.402344" xlink:href="#b"/>
 </g>
</svg>
