<?xml version="1.0" encoding="UTF-8"?>
<svg width="700pt" height="700pt" version="1.1" viewBox="0 0 700 700" xmlns="http://www.w3.org/2000/svg" xmlns:xlink="http://www.w3.org/1999/xlink">
 <defs>
  <symbol id="v" overflow="visible">
   <path d="m19.547-1.1719c-1.0117 0.52344-2.0625 0.91406-3.1562 1.1719-1.0938 0.26953-2.2344 0.40625-3.4219 0.40625-3.543 0-6.3516-0.98828-8.4219-2.9688-2.0625-1.9766-3.0938-4.6602-3.0938-8.0469 0-3.4062 1.0312-6.0977 3.0938-8.0781 2.0703-1.9766 4.8789-2.9688 8.4219-2.9688 1.1875 0 2.3281 0.13672 3.4219 0.40625 1.0938 0.26172 2.1445 0.65625 3.1562 1.1875v4.3906c-1.0234-0.6875-2.0273-1.1914-3.0156-1.5156-0.98047-0.32031-2.0156-0.48438-3.1094-0.48438-1.9609 0-3.5 0.625-4.625 1.875-1.1172 1.25-1.6719 2.9805-1.6719 5.1875 0 2.1875 0.55469 3.9141 1.6719 5.1719 1.125 1.25 2.6641 1.875 4.625 1.875 1.0938 0 2.1289-0.16016 3.1094-0.48438 0.98828-0.32031 1.9922-0.82812 3.0156-1.5156z"/>
  </symbol>
  <symbol id="b" overflow="visible">
   <path d="m14.297-11.609c-0.44922-0.20703-0.89062-0.35938-1.3281-0.45312-0.4375-0.10156-0.88281-0.15625-1.3281-0.15625-1.3125 0-2.3242 0.42188-3.0312 1.2656-0.71094 0.83594-1.0625 2.0391-1.0625 3.6094v7.3438h-5.0938v-15.953h5.0938v2.625c0.65625-1.0508 1.4062-1.8164 2.25-2.2969 0.85156-0.47656 1.875-0.71875 3.0625-0.71875 0.17578 0 0.36328 0.011719 0.5625 0.03125 0.19531 0.011719 0.48438 0.042969 0.85938 0.09375z"/>
  </symbol>
  <symbol id="a" overflow="visible">
   <path d="m18.375-8.0156v1.4531h-11.922c0.125 1.1992 0.55469 2.0938 1.2969 2.6875 0.73828 0.59375 1.7734 0.89062 3.1094 0.89062 1.0703 0 2.1719-0.15625 3.2969-0.46875 1.125-0.32031 2.2812-0.80469 3.4688-1.4531v3.9375c-1.2109 0.46094-2.418 0.80469-3.625 1.0312-1.2109 0.22656-2.4141 0.34375-3.6094 0.34375-2.8984 0-5.1484-0.72656-6.75-2.1875-1.5938-1.4688-2.3906-3.5312-2.3906-6.1875 0-2.5938 0.78516-4.6328 2.3594-6.125 1.5703-1.5 3.7344-2.25 6.4844-2.25 2.5078 0 4.5156 0.75781 6.0156 2.2656 1.5078 1.5117 2.2656 3.5312 2.2656 6.0625zm-5.2344-1.7031c0-0.96875-0.28906-1.75-0.85938-2.3438-0.5625-0.59375-1.2969-0.89062-2.2031-0.89062-0.99219 0-1.7969 0.28125-2.4219 0.84375-0.61719 0.55469-0.99609 1.3516-1.1406 2.3906z"/>
  </symbol>
  <symbol id="f" overflow="visible">
   <path d="m9.5938-7.1719c-1.0625 0-1.8672 0.18359-2.4062 0.54688-0.53125 0.35547-0.79688 0.88281-0.79688 1.5781 0 0.64844 0.21094 1.1523 0.64062 1.5156 0.4375 0.36719 1.0391 0.54688 1.8125 0.54688 0.95703 0 1.7656-0.34375 2.4219-1.0312s0.98438-1.5469 0.98438-2.5781v-0.57812zm7.7969-1.9375v9.1094h-5.1406v-2.3594c-0.6875 0.96875-1.4609 1.6719-2.3125 2.1094-0.85547 0.4375-1.8906 0.65625-3.1094 0.65625-1.6562 0-3-0.47656-4.0312-1.4375-1.0312-0.96875-1.5469-2.2188-1.5469-3.75 0-1.875 0.64062-3.25 1.9219-4.125 1.2891-0.875 3.3164-1.3125 6.0781-1.3125h3v-0.39062c0-0.8125-0.32031-1.4062-0.95312-1.7812-0.63672-0.375-1.6328-0.5625-2.9844-0.5625-1.0859 0-2.1016 0.10938-3.0469 0.32812-0.9375 0.21875-1.8086 0.54688-2.6094 0.98438v-3.8906c1.082-0.25781 2.1758-0.45703 3.2812-0.59375 1.1016-0.14453 2.207-0.21875 3.3125-0.21875 2.875 0 4.9453 0.57031 6.2188 1.7031 1.2812 1.1367 1.9219 2.9805 1.9219 5.5312z"/>
  </symbol>
  <symbol id="c" overflow="visible">
   <path d="m8.0156-20.484v4.5312h5.2656v3.6406h-5.2656v6.7656c0 0.74219 0.14453 1.2461 0.4375 1.5156 0.30078 0.26172 0.89062 0.39062 1.7656 0.39062h2.6094v3.6406h-4.3594c-2.0234 0-3.4531-0.41406-4.2969-1.25-0.83594-0.84375-1.25-2.2734-1.25-4.2969v-6.7656h-2.5312v-3.6406h2.5312v-4.5312z"/>
  </symbol>
  <symbol id="j" overflow="visible">
   <path d="m13.297-13.625v-8.5312h5.1406v22.156h-5.1406v-2.3125c-0.69922 0.94922-1.4688 1.6406-2.3125 2.0781-0.84375 0.42578-1.8242 0.64062-2.9375 0.64062-1.9688 0-3.5859-0.77344-4.8438-2.3281-1.2617-1.5625-1.8906-3.5781-1.8906-6.0469 0-2.457 0.62891-4.4688 1.8906-6.0312 1.2578-1.5625 2.875-2.3438 4.8438-2.3438 1.1016 0 2.0781 0.22656 2.9219 0.67188 0.85156 0.4375 1.6289 1.1211 2.3281 2.0469zm-3.3594 10.328c1.0938 0 1.9258-0.39453 2.5-1.1875 0.57031-0.80078 0.85938-1.9609 0.85938-3.4844 0-1.5078-0.28906-2.6641-0.85938-3.4688-0.57422-0.80078-1.4062-1.2031-2.5-1.2031-1.0859 0-1.9141 0.40234-2.4844 1.2031-0.57422 0.80469-0.85938 1.9609-0.85938 3.4688 0 1.5234 0.28516 2.6836 0.85938 3.4844 0.57031 0.79297 1.3984 1.1875 2.4844 1.1875z"/>
  </symbol>
  <symbol id="i" overflow="visible">
   <path d="m10.938-3.2969c1.0938 0 1.9258-0.39453 2.5-1.1875 0.57031-0.80078 0.85938-1.9609 0.85938-3.4844 0-1.5078-0.28906-2.6641-0.85938-3.4688-0.57422-0.80078-1.4062-1.2031-2.5-1.2031s-1.9336 0.40234-2.5156 1.2031c-0.58594 0.80469-0.875 1.9609-0.875 3.4688 0 1.5117 0.28906 2.668 0.875 3.4688 0.58203 0.80469 1.4219 1.2031 2.5156 1.2031zm-3.3906-10.328c0.70703-0.92578 1.4883-1.6094 2.3438-2.0469 0.85156-0.44531 1.832-0.67188 2.9375-0.67188 1.9688 0 3.582 0.78125 4.8438 2.3438 1.2695 1.5625 1.9062 3.5742 1.9062 6.0312 0 2.4688-0.63672 4.4844-1.9062 6.0469-1.2617 1.5547-2.875 2.3281-4.8438 2.3281-1.1055 0-2.0859-0.21875-2.9375-0.65625-0.85547-0.4375-1.6367-1.125-2.3438-2.0625v2.3125h-5.0938v-22.156h5.0938z"/>
  </symbol>
  <symbol id="h" overflow="visible">
   <path d="m0.35938-15.953h5.0938l4.2969 10.828 3.6406-10.828h5.0938l-6.7031 17.469c-0.67969 1.7695-1.4648 3.0078-2.3594 3.7188-0.89844 0.70703-2.0781 1.0625-3.5469 1.0625h-2.9531v-3.3438h1.5938c0.86328 0 1.4922-0.14062 1.8906-0.42188 0.39453-0.27344 0.70312-0.76562 0.92188-1.4844l0.14062-0.4375z"/>
  </symbol>
  <symbol id="e" overflow="visible">
   <path d="m2.6719-21.266h9.1094c2.707 0 4.7852 0.60547 6.2344 1.8125 1.4453 1.1992 2.1719 2.9062 2.1719 5.125 0 2.2305-0.72656 3.9492-2.1719 5.1562-1.4492 1.1992-3.5273 1.7969-6.2344 1.7969h-3.625v7.375h-5.4844zm5.4844 3.9688v5.9375h3.0469c1.0625 0 1.8789-0.25391 2.4531-0.76562 0.58203-0.51953 0.875-1.2539 0.875-2.2031 0-0.94531-0.29297-1.6758-0.875-2.1875-0.57422-0.51953-1.3906-0.78125-2.4531-0.78125z"/>
  </symbol>
  <symbol id="u" overflow="visible">
   <path d="m0.4375-15.953h5.1094l3.9688 11.031 3.9531-11.031h5.125l-6.2812 15.953h-5.6094z"/>
  </symbol>
  <symbol id="g" overflow="visible">
   <path d="m18.484-9.7188v9.7188h-5.125v-7.4375c0-1.375-0.03125-2.3203-0.09375-2.8438-0.0625-0.51953-0.16797-0.90625-0.3125-1.1562-0.19922-0.33203-0.46875-0.58594-0.8125-0.76562-0.34375-0.1875-0.73438-0.28125-1.1719-0.28125-1.0625 0-1.9023 0.41406-2.5156 1.2344-0.60547 0.8125-0.90625 1.9492-0.90625 3.4062v7.8438h-5.0938v-15.953h5.0938v2.3281c0.76953-0.92578 1.5859-1.6094 2.4531-2.0469 0.86328-0.44531 1.8164-0.67188 2.8594-0.67188 1.8438 0 3.2383 0.57031 4.1875 1.7031 0.95703 1.125 1.4375 2.7656 1.4375 4.9219z"/>
  </symbol>
  <symbol id="t" overflow="visible">
   <path d="m8.1562-17.125v12.984h1.9688c2.2383 0 3.9453-0.55469 5.125-1.6719 1.1875-1.1133 1.7812-2.7266 1.7812-4.8438 0-2.1016-0.58984-3.707-1.7656-4.8125-1.1797-1.1016-2.8906-1.6562-5.1406-1.6562zm-5.4844-4.1406h5.7969c3.2188 0 5.6172 0.23047 7.2031 0.6875 1.582 0.46094 2.9414 1.2422 4.0781 2.3438 0.98828 0.96094 1.7227 2.0703 2.2031 3.3281 0.48828 1.25 0.73438 2.668 0.73438 4.25 0 1.6055-0.24609 3.0391-0.73438 4.2969-0.48047 1.2617-1.2148 2.3711-2.2031 3.3281-1.1484 1.1055-2.5156 1.8867-4.1094 2.3438-1.5938 0.46094-3.9844 0.6875-7.1719 0.6875h-5.7969z"/>
  </symbol>
  <symbol id="s" overflow="visible">
   <path d="m2.4531-15.953h5.0938v15.953h-5.0938zm0-6.2031h5.0938v4.1562h-5.0938z"/>
  </symbol>
  <symbol id="r" overflow="visible">
   <path d="m2.4531-22.156h5.0938v22.156h-5.0938z"/>
  </symbol>
  <symbol id="q" overflow="visible">
   <path d="m12.953-22.156v3.3438h-2.8281c-0.71875 0-1.2266 0.13281-1.5156 0.39062-0.28125 0.26172-0.42188 0.71484-0.42188 1.3594v1.1094h4.3594v3.6406h-4.3594v12.312h-5.0938v-12.312h-2.5312v-3.6406h2.5312v-1.1094c0-1.7383 0.48438-3.0195 1.4531-3.8438 0.96875-0.83203 2.4688-1.25 4.5-1.25z"/>
  </symbol>
  <symbol id="d" overflow="visible">
   <path d="m10.047-12.688c-1.1367 0-2 0.40625-2.5938 1.2188s-0.89062 1.9805-0.89062 3.5c0 1.5312 0.29688 2.7031 0.89062 3.5156s1.457 1.2188 2.5938 1.2188c1.1016 0 1.9453-0.40625 2.5312-1.2188 0.59375-0.8125 0.89062-1.9844 0.89062-3.5156 0-1.5195-0.29688-2.6875-0.89062-3.5-0.58594-0.8125-1.4297-1.2188-2.5312-1.2188zm0-3.6562c2.7383 0 4.8789 0.74609 6.4219 2.2344 1.5391 1.4805 2.3125 3.5273 2.3125 6.1406 0 2.625-0.77344 4.6797-2.3125 6.1562-1.543 1.4805-3.6836 2.2188-6.4219 2.2188-2.7617 0-4.918-0.73828-6.4688-2.2188-1.5547-1.4766-2.3281-3.5312-2.3281-6.1562 0-2.6133 0.77344-4.6602 2.3281-6.1406 1.5508-1.4883 3.707-2.2344 6.4688-2.2344z"/>
  </symbol>
  <symbol id="p" overflow="visible">
   <path d="m17.234-13.297c0.64453-0.98828 1.4102-1.7422 2.2969-2.2656 0.89453-0.51953 1.875-0.78125 2.9375-0.78125 1.832 0 3.2266 0.57031 4.1875 1.7031 0.95703 1.125 1.4375 2.7656 1.4375 4.9219v9.7188h-5.125v-8.3125-0.39062c0.007812-0.13281 0.015625-0.32031 0.015625-0.5625 0-1.1328-0.16797-1.9531-0.5-2.4531-0.32422-0.50781-0.85938-0.76562-1.6094-0.76562-0.96875 0-1.7188 0.40234-2.25 1.2031-0.52344 0.79297-0.79297 1.9453-0.8125 3.4531v7.8281h-5.125v-8.3125c0-1.7695-0.15234-2.9062-0.45312-3.4062-0.30469-0.50781-0.84375-0.76562-1.625-0.76562-0.98047 0-1.7344 0.40234-2.2656 1.2031-0.53125 0.80469-0.79688 1.9492-0.79688 3.4375v7.8438h-5.125v-15.953h5.125v2.3281c0.625-0.89453 1.3438-1.5703 2.1562-2.0312 0.8125-0.45703 1.707-0.6875 2.6875-0.6875 1.1016 0 2.0781 0.26562 2.9219 0.79688s1.4844 1.2812 1.9219 2.25z"/>
  </symbol>
  <symbol id="o" overflow="visible">
   <path d="m18.484-9.7188v9.7188h-5.125v-7.4062c0-1.3945-0.03125-2.3516-0.09375-2.875-0.0625-0.51953-0.16797-0.90625-0.3125-1.1562-0.19922-0.33203-0.46875-0.58594-0.8125-0.76562-0.34375-0.1875-0.73438-0.28125-1.1719-0.28125-1.0625 0-1.9023 0.41406-2.5156 1.2344-0.60547 0.8125-0.90625 1.9492-0.90625 3.4062v7.8438h-5.0938v-22.156h5.0938v8.5312c0.76953-0.92578 1.5859-1.6094 2.4531-2.0469 0.86328-0.44531 1.8164-0.67188 2.8594-0.67188 1.8438 0 3.2383 0.57031 4.1875 1.7031 0.95703 1.125 1.4375 2.7656 1.4375 4.9219z"/>
  </symbol>
  <symbol id="n" overflow="visible">
   <path d="m2.6719-21.266h6.125l7.7344 14.578v-14.578h5.2031v21.266h-6.125l-7.7344-14.594v14.594h-5.2031z"/>
  </symbol>
  <symbol id="m" overflow="visible">
   <path d="m2.2812-6.2031v-9.75h5.125v1.5938c0 0.86719-0.007812 1.9531-0.015625 3.2656-0.011719 1.3047-0.015625 2.1719-0.015625 2.6094 0 1.2812 0.03125 2.2031 0.09375 2.7656 0.070312 0.5625 0.1875 0.97656 0.34375 1.2344 0.21875 0.33594 0.49219 0.58984 0.82812 0.76562 0.33203 0.17969 0.71875 0.26562 1.1562 0.26562 1.0625 0 1.8945-0.40625 2.5-1.2188 0.61328-0.8125 0.92188-1.9453 0.92188-3.4062v-7.875h5.0938v15.953h-5.0938v-2.3125c-0.77344 0.9375-1.5898 1.625-2.4531 2.0625-0.85547 0.4375-1.7969 0.65625-2.8281 0.65625-1.8438 0-3.25-0.5625-4.2188-1.6875-0.96094-1.1328-1.4375-2.7734-1.4375-4.9219z"/>
  </symbol>
  <symbol id="l" overflow="visible">
   <path d="m2.4531-15.953h5.0938v15.672c0 2.1328-0.51562 3.7656-1.5469 4.8906-1.0234 1.125-2.5078 1.6875-4.4531 1.6875h-2.5156v-3.3438h0.89062c0.96875 0 1.6289-0.21875 1.9844-0.65625 0.36328-0.4375 0.54688-1.2969 0.54688-2.5781zm0-6.2031h5.0938v4.1562h-5.0938z"/>
  </symbol>
  <symbol id="k" overflow="visible">
   <path d="m15.344-15.453v4.1562c-0.69922-0.46875-1.3984-0.81641-2.0938-1.0469-0.69922-0.22656-1.4219-0.34375-2.1719-0.34375-1.4297 0-2.5391 0.41797-3.3281 1.25-0.79297 0.82422-1.1875 1.9805-1.1875 3.4688 0 1.5 0.39453 2.668 1.1875 3.5 0.78906 0.82422 1.8984 1.2344 3.3281 1.2344 0.80078 0 1.5547-0.11719 2.2656-0.35938 0.71875-0.23828 1.3828-0.58594 2-1.0469v4.1719c-0.80469 0.29297-1.6172 0.50781-2.4375 0.65625-0.8125 0.14453-1.6367 0.21875-2.4688 0.21875-2.875 0-5.125-0.73438-6.75-2.2031-1.625-1.4766-2.4375-3.5352-2.4375-6.1719 0-2.625 0.8125-4.6758 2.4375-6.1562 1.625-1.4766 3.875-2.2188 6.75-2.2188 0.83203 0 1.6562 0.078125 2.4688 0.23438 0.8125 0.14844 1.625 0.36719 2.4375 0.65625z"/>
  </symbol>
 </defs>
 <g>
  <path d="m204.02 507.5v-101.35h-81.523v-14.34h114.81c-0.65234-2.9805-1.2109-5.9883-1.6797-9.0273l-1.1758-17.938-11.711 2.3789c-9.5117 1.5-19.113 2.5664-28.797 3.1602-11.02 0.67578-22.086 0.70703-33.109 0.10547-4.8828-0.26953-10.023-0.56641-14.863-1.207-4.9961-0.66406-9.9336-1.2383-14.918-2.0703-1.1523-0.19141-3.8789-0.49609-4.8477-0.85156-19.574-5.1875-14.277-27.027 0.84766-28.367 9.5469-0.57812 19.289-1.6328 28.809-2.5664 16.613-1.6289 33.211-3.3633 49.805-5.1641l30.82-3.2305 0.15234-1.4883c1.7188-9.3789 4.1797-18.531 7.332-27.223l4.5586-10.059h-126.03v-14.344h55.723v-103.54h-55.723v-14.344h173.4v-99.168h16.328v99.168h13.289c0.65234-2.2578 1.3359-4.5039 2.0586-6.7109 2.3789-7.25 4.5859-14.332 7.4727-21.418 0.69531-1.6992 1.4922-4.1133 2.3164-5.6875 1.4805-2.8281 3.8398-6.0547 5.5898-8.8203-0.09375 3.3203 0.023437 7.1211-0.28125 10.371-0.29297 3.0859-1.0547 6.8789-1.6172 9.9688-1.3242 7.2852-2.6055 14.754-3.6797 22.078-0.011719 0.078125-0.023438 0.14844-0.035156 0.21875h178.91v-99.168h14.723v99.168h46.531v14.344h-160.28v55.398c5.8555-0.91406 11.617-2.3398 17.254-4.457 4.1016-1.5391 9.7891-3.8047 13.387-6.2109 1.8281-1.2188 3.8516-2.2656 5.707-3.5078 0.78516-0.52344 2.3828-1.832 3.1367-2.1641 17.18-8.6328 37.332 8.832 20.605 28.02-0.99219 1.1406-2.3828 1.8594-3.5781 2.7852-2.9805 2.3164-5.9688 4.75-9.0195 6.9648-4.9609 3.6133-9.8398 7.4844-14.77 11.168-7.0586 5.2734-14.215 10.457-21.441 15.539h149v14.344h-37.781v103.55h37.781v14.34h-76.418c3.4727 5.2383 7.5156 10.074 12.754 14.898 4.6953 4.3281 9.8281 8.2305 14.832 12.191 2.2539 1.7852 4.4648 3.6445 6.4297 5.7383 0.39844 0.42578 0.91016 0.75391 1.2266 1.2422 0.13281 0.21094 1.4805 3.6406 1.5547 3.9375l1.0391 2.6211c-1.4531 1.2422-2.8984 2.4844-4.3438 3.7266-0.35938 0.30859-0.66797 0.71094-1.0859 0.92969-1.3242 0.6875-7.3438 1.4023-9.0078 1.3594-10.727-0.28906-20.598-2.7734-29.988-8.0391-16.129-9.043-26.227-22.242-32.988-38.605h-22.406v101.35h-16.328v-101.35h-111.19c-0.55859 4.4141-1.1445 8.8203-1.75 13.219-0.98438 7.1055-2.2852 14.242-3.207 21.332-0.36328 2.7812-0.95312 5.6211-1.4258 8.3945-0.11719 0.69141-0.24609 1.3945-0.35938 2.0859-0.11719 0.69531-0.066406 1.4492-0.35547 2.0898l-6.957 8.5156c-0.76953 0.49609-0.89062 1.7812-1.7383 2.1289-0.54687 0.23047-7.125-1.0781-8.1953-0.90234l-5.457-0.60547c-1.2891-0.46875-8.2109-5.8398-9.3164-6.9766-1.1094-1.1406-2.5781-2.3047-3.7695-3.4141-2.8477-2.6562-5.543-5.7188-8.0078-8.7266-8.0938-9.8516-14.023-21.273-18.422-33.199-0.48438-1.3008-0.94531-2.6172-1.3906-3.9414h-22.48v101.35zm77.09-86.82 2.6016-14.531h-10.203c0.51172 1.2578 1.0547 2.5 1.6289 3.7344zm5.1719-28.871 0.22266-1.2344 5.9102-42.234-13.727 5.1055-12.984 3.7656 0.11719 16.695c0.59375 6.0977 1.6094 12.098 3.0547 17.902zm168.23-7.6719c-1.0859-4.1797-2.2734-9.0938-3.9297-13.129-1.8906-4.5898-5.9805-7.4766-9.8789-10.332-1.5977-1.1719-2.1094-3.4062-3.2891-4.8984l0.86328-1.8047c0.066406-0.17969 1.2266-2.6133 1.3086-2.7109 1.1289-1.4219 5.6406-3.2031 7.4727-3.582 8.3008-1.7266 16.617 1.0156 23.117 6.2422 10.598 8.5273 16.141 23.035 21.645 35.039 0.44531 0.96875 0.88281 1.9219 1.3242 2.8477h31.848v-103.55h-117.54c-0.042969 0.035156-0.082031 0.0625-0.125 0.085937l-46.262 28.047 26.414-1.0938c15.578-0.28906 31.324-0.125 46.875 0.90234 4.9922 0.33203 9.8984 0.73047 14.871 1.332l4.2461 0.47656c3.293 0.65234 7.2305 2.0703 10.547 3-3.3711 0.85156-7.2305 2.0703-10.594 2.6719-3.1914 0.5625-7.2578 0.85156-10.535 1.1367-7.6719 0.67188-15.438 1.3516-23.09 2.1758-9.7578 1.043-19.539 1.9062-29.301 2.9688-13.254 1.4414-26.484 3.0547-39.699 4.7656l-29.828 4.4258v52.652h135.61c-0.72656-2.5469-1.4102-5.1133-2.0703-7.6719zm-183.83-62.531 11.602-3.9336 15.238-6.8477 2.4336-18.238-4.3477 2.5898c-3.0898 1.4297-6.2812 2.5547-9.5117 3.3047l-6.9336 0.78906-0.64062 1.1133zm50.953-22.004 20.723-11.34h-19.707l-0.51172 5.5586zm-76.801-25.684-0.82031-4.1992c0.011719-0.10156 2.9922-5.8125 3.1836-6.0781 0.88672-1.2422 1.207-2.8359 2.125-4.0547 0.47266-0.62891 2.0273-1.9141 2.6797-2.5195 4.0625-3.7695 8.4414-7.3555 12.953-10.578 13.031-9.3086 26.574-15.348 41.461-18.758l3.5195-0.58984 1.5469-9.6562c2.9023-15.824 6.2266-31.516 10.195-47.102h-124.8v103.54zm140.12-11.727 0.62891-0.44141-5.8008-0.12891c-7.5234-0.46094-15.043-1.0977-22.574-1.5977-5.2617-0.35156-10.398-0.62891-15.453-0.72266l-14.516 0.4375-1.6992 4.4492-0.76953 1.3711-0.78125 8.3594h42.875c6.1016-3.8281 12.133-7.7422 18.09-11.727zm15.934-35.016v-56.793h-65.754c-0.29688 1.9375-0.58203 3.8711-0.85547 5.8086-1.6758 11.777-3.1094 23.574-4.4609 35.387l-1.25 13.34 15.297-0.55469c7.4141 0.16406 14.82 0.66406 22.09 1.2188 11.473 0.88281 23.262 1.8789 34.934 1.5938z" fill-rule="evenodd"/>
  <use x="70" y="647.5" xlink:href="#v"/>
  <use x="91.40625" y="647.5" xlink:href="#b"/>
  <use x="105.789062" y="647.5" xlink:href="#a"/>
  <use x="125.570312" y="647.5" xlink:href="#f"/>
  <use x="145.253906" y="647.5" xlink:href="#c"/>
  <use x="159.195312" y="647.5" xlink:href="#a"/>
  <use x="178.976562" y="647.5" xlink:href="#j"/>
  <use x="210.007812" y="647.5" xlink:href="#i"/>
  <use x="230.886719" y="647.5" xlink:href="#h"/>
  <use x="260.054688" y="647.5" xlink:href="#e"/>
  <use x="281.429688" y="647.5" xlink:href="#a"/>
  <use x="301.210938" y="647.5" xlink:href="#c"/>
  <use x="315.152344" y="647.5" xlink:href="#a"/>
  <use x="334.933594" y="647.5" xlink:href="#b"/>
  <use x="359.472656" y="647.5" xlink:href="#u"/>
  <use x="378.484375" y="647.5" xlink:href="#f"/>
  <use x="398.167969" y="647.5" xlink:href="#g"/>
  <use x="429.085938" y="647.5" xlink:href="#t"/>
  <use x="453.296875" y="647.5" xlink:href="#b"/>
  <use x="467.679688" y="647.5" xlink:href="#s"/>
  <use x="477.679687" y="647.5" xlink:href="#a"/>
  <use x="497.460938" y="647.5" xlink:href="#r"/>
  <use x="70" y="676.667969" xlink:href="#q"/>
  <use x="82.6875" y="676.667969" xlink:href="#b"/>
  <use x="97.074219" y="676.667969" xlink:href="#d"/>
  <use x="117.109375" y="676.667969" xlink:href="#p"/>
  <use x="157.65625" y="676.667969" xlink:href="#c"/>
  <use x="171.597656" y="676.667969" xlink:href="#o"/>
  <use x="192.363281" y="676.667969" xlink:href="#a"/>
  <use x="222.300781" y="676.667969" xlink:href="#n"/>
  <use x="246.710938" y="676.667969" xlink:href="#d"/>
  <use x="266.746094" y="676.667969" xlink:href="#m"/>
  <use x="287.511719" y="676.667969" xlink:href="#g"/>
  <use x="318.429688" y="676.667969" xlink:href="#e"/>
  <use x="339.804688" y="676.667969" xlink:href="#b"/>
  <use x="354.191406" y="676.667969" xlink:href="#d"/>
  <use x="374.226562" y="676.667969" xlink:href="#l"/>
  <use x="384.226562" y="676.667969" xlink:href="#a"/>
  <use x="404.007812" y="676.667969" xlink:href="#k"/>
  <use x="421.296875" y="676.667969" xlink:href="#c"/>
 </g>
</svg>
